<?xml version="1.0" encoding="UTF-8"?>
<svg id="_レイヤー_2" data-name="レイヤー 2" xmlns="http://www.w3.org/2000/svg" viewBox="0 0 87.58 100.41">
  <defs>
    <style>
      .cls-1 {
        fill: #231815;
      }

      .cls-2 {
        fill: #fff;
      }

      .cls-3 {
        fill: none;
        stroke: #fff;
        stroke-linecap: round;
        stroke-miterlimit: 10;
        stroke-width: 1.87px;
      }
    </style>
  </defs>
  <g id="illust">
    <g>
      <path class="cls-2" d="M78.83,68.93c-17.17,32.13-42.32,36.03-58.86,27.72-.27-.13-.52-.27-.78-.41-.26-.14-.52-.28-.77-.42C2.3,86.68-8.42,63.62,8.75,31.48,25.91-.64,51.06-4.55,67.6,3.76c.27.13.52.27.78.41.26.14.52.28.77.42,16.11,9.14,26.84,32.22,9.67,64.34Z"/>
      <path class="cls-1" d="M76.49,67.68c-2.28,4.26-7.77,5.99-10.43,9.21-3.08,3.73-3.89,9.39-7.24,11.89-3.88,2.9-9.59,1.93-13.46,3.47-4.61,1.83-8.27,6.25-12.26,6.57-5.71.45-9.73-3.78-12.48-5.25-2.75-1.47-8.51-2.46-11.3-7.46-1.95-3.49-.31-8.99-1.35-13.84-.88-4.07-4.86-8.28-4.6-13.12.22-4.18,4.48-8,5.86-12.63,1.2-4.01-.42-9.53,1.86-13.79,2.24-4.2,7.72-5.8,10.44-8.94,3.1-3.57,4.04-9.16,7.47-11.55,3.88-2.71,9.54-1.56,13.41-3.03,4.59-1.74,8.16-6.18,12.05-6.63,6.4-.75,10.69,3.29,12.5,4.26,1.81.97,7.55,2.3,10.49,8.03,1.78,3.48.08,8.92,1.18,13.7.93,4.04,5.03,8.1,4.94,12.83-.08,4.17-4.2,8.06-5.45,12.62-1.1,4.01.62,9.45-1.63,13.65Z"/>
      <g>
        <g>
          <line class="cls-3" x1="71.41" y1="40.17" x2="78.07" y2="40.39"/>
          <line class="cls-3" x1="65.14" y1="59.66" x2="72.23" y2="63.45"/>
          <line class="cls-3" x1="52.51" y1="78.72" x2="55.36" y2="84.52"/>
        </g>
        <g>
          <line class="cls-3" x1="36.78" y1="21.67" x2="32.9" y2="16.26"/>
          <line class="cls-3" x1="24.07" y1="37.71" x2="16.98" y2="33.92"/>
          <line class="cls-3" x1="15.24" y1="58.81" x2="8.83" y2="59.66"/>
        </g>
      </g>
      <g>
        <path class="cls-2" d="M61.75,11.14c-.74.51-1.49,1.09-2.22,1.66-.74.56-1.47,1.14-2.19,1.72-1.44,1.17-2.82,2.42-4.18,3.67-2.76,2.46-5.34,5.11-7.72,7.9-4.82,5.54-8.95,11.59-12.08,18.16-1.6,3.28-2.91,6.72-4.17,10.18-.6,1.74-1.19,3.5-1.71,5.27-.55,1.77-1.09,3.55-1.57,5.34-1,3.58-1.79,7.23-2.56,10.89-.82,3.65-1.44,7.36-2.05,11.04v.06c-.09.45-.51.76-.97.69-.41-.07-.71-.43-.7-.84.19-7.64,1.2-15.18,2.76-22.65.76-3.74,1.74-7.44,2.92-11.08,1.19-3.64,2.53-7.24,4.18-10.74,1.6-3.52,3.61-6.85,5.81-10.02,2.22-3.16,4.66-6.16,7.33-8.93,5.4-5.49,11.44-10.3,18.32-13.81.41-.21.91-.05,1.12.36.19.37.07.83-.27,1.06l-.06.05Z"/>
        <path class="cls-2" d="M67.94,13.4c.36,1.94.53,3.84.61,5.76.09,1.92.14,3.85.06,5.78-.19,3.85-.65,7.69-1.36,11.51-1.53,7.59-4.31,15.04-8.39,21.71-2.02,3.34-4.26,6.5-6.69,9.49-1.22,1.49-2.46,2.96-3.75,4.39-1.29,1.42-2.64,2.79-4,4.14-2.73,2.68-5.53,5.29-8.48,7.71-2.99,2.38-5.97,4.73-9.22,6.79h-.01c-.39.25-.91.14-1.15-.25-.22-.35-.15-.81.16-1.08,2.82-2.43,5.61-4.96,8.27-7.58,2.68-2.61,5.31-5.27,7.8-8.06,1.25-1.38,2.46-2.8,3.65-4.23,1.21-1.41,2.37-2.87,3.51-4.33,2.25-2.95,4.38-5.99,6.23-9.18,1.85-3.18,3.54-6.45,4.92-9.87,1.4-3.41,2.5-6.94,3.41-10.52.93-3.58,1.63-7.23,2.07-10.92.48-3.67.73-7.43.69-11.1,0-.46.36-.84.83-.85.41,0,.76.29.83.68Z"/>
      </g>
    </g>
  </g>
</svg>