<?xml version="1.0" encoding="UTF-8"?>
<svg id="_レイヤー_2" data-name="レイヤー 2" xmlns="http://www.w3.org/2000/svg" viewBox="0 0 67.31 103.52">
  <defs>
    <style>
      .cls-1 {
        fill: #fff;
      }

      .cls-2 {
        fill: none;
        stroke: #231815;
        stroke-linecap: round;
        stroke-miterlimit: 10;
        stroke-width: 3.6px;
      }
    </style>
  </defs>
  <g id="illust">
    <g>
      <path class="cls-1" d="M67.21,61.56c1.5,28.55-15.02,41.96-33.56,41.96S-1.4,90.1.09,61.56C1.59,33.01,25.37,0,33.65,0s32.06,33.01,33.56,61.56Z"/>
      <g>
        <path class="cls-2" d="M17.94,82.56c2.34,6.62,5.64,9.41,5.64,9.41"/>
        <path class="cls-2" d="M20.76,36.91s-5.1,11.5-5.02,33.89c0,1.3.18,2.53.33,3.69"/>
        <path class="cls-2" d="M45.81,29.56c2.31,5.3,4.4,11.6,5.52,18.66,3.45,21.8,0,33.24-5.02,40.3"/>
        <path class="cls-2" d="M35.18,11.85s2.3,2.65,5.22,7.37"/>
        <path class="cls-2" d="M30.48,57.63s-1.67,10.23-.55,16.33c1.12,6.1,2.47,8.76,2.47,8.76"/>
      </g>
    </g>
  </g>
</svg>