<?xml version="1.0" encoding="UTF-8"?>
<svg id="_レイヤー_2" data-name="レイヤー 2" xmlns="http://www.w3.org/2000/svg" viewBox="0 0 95.42 103.2">
  <defs>
    <style>
      .cls-1 {
        fill: #fff;
      }
    </style>
  </defs>
  <g id="illust">
    <g>
      <path class="cls-1" d="M89.26,29.99c-16.02-18.72-33.68-4.21-41.55-4.21S22.18,11.27,6.16,29.99c-16.02,18.72,3.1,58.79,13.6,68.2,10.5,9.41,20.08,2.66,27.95,2.66s17.46,6.75,27.95-2.66c10.5-9.41,29.62-49.48,13.6-68.2Z"/>
      <path class="cls-1" d="M44.25,4.31c.49.57.8.99,1.16,1.48.34.48.67.97.97,1.46.61.99,1.18,2,1.66,3.07.99,2.1,1.69,4.37,2.03,6.71.09.58.12,1.18.17,1.77.02.56.04,1.11.04,1.67,0,1.12-.05,2.23-.16,3.35-.12,1.12-.28,2.24-.54,3.35-.12.56-.28,1.11-.46,1.66-.09.28-.19.55-.3.83-.12.3-.21.52-.41.91-.39.76-1.32,1.06-2.08.68-.67-.34-.99-1.11-.78-1.81l.07-.24.16-.56c.06-.22.11-.45.15-.67.09-.46.17-.93.21-1.41.11-.96.14-1.93.13-2.91-.02-.98-.09-1.96-.21-2.95-.06-.49-.13-.98-.21-1.47-.1-.45-.17-.9-.3-1.34-.48-1.78-1.23-3.49-2.23-5.09-.48-.8-1.04-1.57-1.62-2.3-.29-.37-.6-.72-.91-1.07-.29-.33-.66-.71-.89-.91-1.27-1.1-1.4-3.01-.31-4.28s3.01-1.4,4.28-.31c.1.09.2.19.29.29l.06.07Z"/>
      <path class="cls-1" d="M78.02,3.2s-4.63,9-12.91,11.48c-8.28,2.48-17.09-2.51-17.09-2.51,0,0,4.63-9,12.91-11.48,8.28-2.48,17.09,2.51,17.09,2.51Z"/>
    </g>
  </g>
</svg>