<?xml version="1.0" encoding="UTF-8"?>
<svg id="_レイヤー_2" data-name="レイヤー 2" xmlns="http://www.w3.org/2000/svg" viewBox="0 0 105.03 101.61">
  <defs>
    <style>
      .cls-1 {
        fill: #231815;
      }

      .cls-2 {
        fill: #fff;
      }

      .cls-3 {
        stroke-width: 1.8px;
      }

      .cls-3, .cls-4 {
        fill: none;
        stroke: #231815;
        stroke-linecap: round;
        stroke-miterlimit: 10;
      }

      .cls-4 {
        stroke-width: 1.65px;
      }
    </style>
  </defs>
  <g id="illust">
    <g>
      <g>
        <path class="cls-2" d="M34.67,49.65c-25.18-.27-29.39-23.32-29.43-23.55-.02-.11-.02-.22,0-.33l.95-5.29c.06-.36.33-.64.67-.74l5.14-1.44c.08-.02.17-.04.25-.04.18,0,.35.05.51.15.1.06,9.8,6.14,26.19,7.95,1.14.13,2.34.19,3.57.19,15.57,0,33.17-10.16,33.34-10.26.15-.08.31-.13.47-.13.11,0,.21.02.31.05.26.09.47.29.57.55l2.53,6.58c.12.31.07.65-.13.91-.8,1.04-19.87,25.39-44.56,25.39,0,0-.39,0-.39,0Z"/>
        <path class="cls-1" d="M76.34,17.11l2.53,6.57s-19.31,25.02-43.81,25.02c-.13,0-.25,0-.38,0-24.69-.26-28.51-22.76-28.51-22.76l.95-5.29,5.14-1.44s9.76,6.23,26.59,8.1c1.21.13,2.44.2,3.67.2,16.02,0,33.82-10.39,33.82-10.39M76.34,15.23c-.33,0-.66.09-.95.26-.17.1-17.56,10.13-32.87,10.13-1.2,0-2.36-.06-3.47-.18-16.21-1.8-25.69-7.75-25.79-7.81-.31-.2-.66-.3-1.01-.3-.17,0-.34.02-.51.07l-5.14,1.44c-.7.19-1.22.77-1.35,1.48l-.95,5.29c-.04.21-.04.43,0,.65.04.25,1.08,6.12,5.32,12.06,3.94,5.52,11.48,12.13,25.03,12.27h.4c25.14,0,44.49-24.7,45.31-25.75.4-.52.5-1.21.27-1.83l-2.53-6.57c-.2-.52-.61-.92-1.13-1.1-.2-.07-.41-.11-.62-.11h0Z"/>
      </g>
      <g>
        <g>
          <g>
            <path class="cls-2" d="M34.88,76.47c-21.39,0-32.15-18.33-32.25-18.52-.07-.12-.12-.26-.14-.4l-1.22-6.95c-.08-.47.11-.94.5-1.22l5.69-4.08c.21-.15.46-.23.72-.23.09,0,.18,0,.27.03.05,0,4.61,1,12.21,1s15.7-.99,23.71-2.93c20.95-5.08,34.91-23.13,35.05-23.31.23-.29.57-.47.94-.49.01,0,.03,0,.04,0,.36,0,.7.15.93.42l6.1,6.98c.25.29.36.68.28,1.05-.07.35-7.2,35.13-38.09,45.98-5.04,1.77-10,2.67-14.73,2.67h0Z"/>
            <path class="cls-1" d="M80.39,20.6l6.1,6.98s-6.71,34.31-37.29,45.05c-5.23,1.84-10,2.6-14.32,2.6-20.92,0-31.18-17.89-31.18-17.89l-1.22-6.95,5.69-4.09s4.63,1.03,12.47,1.03c6.22,0,14.45-.65,24.01-2.97,21.61-5.25,35.74-23.76,35.74-23.76M80.39,18.12s-.05,0-.08,0c-.74.02-1.43.38-1.89.97-.2.26-13.94,17.9-34.36,22.86-7.92,1.92-15.8,2.9-23.42,2.9s-11.89-.96-11.94-.97c-.18-.04-.35-.06-.53-.06-.51,0-1.02.16-1.44.46l-5.69,4.09c-.77.55-1.16,1.5-.99,2.44l1.22,6.95c.05.28.15.55.29.8.45.78,11.22,19.14,33.33,19.14,4.87,0,9.97-.92,15.14-2.74,13.08-4.6,23.96-14.17,31.45-27.69,5.62-10.15,7.37-18.86,7.44-19.22.15-.75-.06-1.53-.57-2.1l-6.1-6.98c-.47-.54-1.15-.85-1.86-.85h0Z"/>
          </g>
          <path class="cls-4" d="M67.62,47.12c-6.61,5.84-15.6,11.95-25,12.92-18.73,1.94-31.63-5.26-31.63-5.26"/>
        </g>
        <path class="cls-1" d="M7.89,47.89l-3.92,2.78.7,5.93s3.11-3.69,3.54-4.49-.33-4.22-.33-4.22Z"/>
      </g>
      <g>
        <g>
          <g>
            <path class="cls-2" d="M47.92,100.26c-10.87,0-18.85-4.12-19.19-4.29-.14-.07-.26-.17-.37-.28l-5.21-5.68c-.35-.38-.45-.93-.26-1.41l2.84-7.1c.14-.36.43-.64.79-.77.15-.06,15.55-5.81,31.9-22.85,16.26-16.95,18.54-41.76,18.56-42.01.03-.4.25-.77.58-1,.23-.16.49-.24.76-.24.13,0,.25.02.38.05l9.7,2.84c.4.12.72.41.88.8.14.36,13.99,36.54-8.05,64.65-8.87,11.31-20.39,17.29-33.32,17.29h0Z"/>
            <path class="cls-1" d="M78.34,15.98l9.7,2.84s13.96,35.49-7.86,63.32c-10.43,13.3-22.5,16.77-32.26,16.77-10.66,0-18.56-4.14-18.56-4.14l-5.21-5.68,2.84-7.1s15.62-5.68,32.42-23.19c16.8-17.51,18.93-42.83,18.93-42.83M78.34,13.28c-.54,0-1.07.16-1.53.47-.67.46-1.09,1.19-1.16,2h0c-.02.24-2.28,24.6-18.19,41.19-16.11,16.79-31.24,22.47-31.39,22.52-.72.26-1.3.82-1.58,1.53l-2.84,7.1c-.39.96-.18,2.06.52,2.83l5.21,5.68c.21.23.46.42.74.57.35.18,8.62,4.45,19.82,4.45,13.36,0,25.25-6.16,34.39-17.81,9.34-11.91,13.72-27.1,12.68-43.93-.78-12.63-4.29-21.67-4.44-22.05-.31-.78-.95-1.37-1.75-1.6l-9.7-2.84c-.25-.07-.5-.11-.76-.11h0Z"/>
          </g>
          <path class="cls-3" d="M82.16,47.86c-2.66,9.25-7.33,20.14-15.41,26.56-16.09,12.78-32.18,13.72-32.18,13.72"/>
          <path class="cls-3" d="M85.44,31.12s-.28,3.34-1.25,8.27"/>
        </g>
        <path class="cls-1" d="M27.67,83.62l-1.97,4.86,4.13,5.04s.69-5.22.62-6.21c-.07-.99-2.78-3.69-2.78-3.69Z"/>
      </g>
      <path class="cls-2" d="M70.06,0s9.61,9.03,17.68,11.34c8.07,2.31,17.29,2.5,17.29,2.5l-5.76,9.42s-11.14,2.88-20.75-4.03c-9.61-6.92-10.57-11.72-10.57-11.72l2.11-7.49Z"/>
    </g>
  </g>
</svg>