<?xml version="1.0" encoding="UTF-8"?>
<svg id="_レイヤー_2" data-name="レイヤー 2" xmlns="http://www.w3.org/2000/svg" xmlns:xlink="http://www.w3.org/1999/xlink" viewBox="0 0 87.64 115.58">
  <defs>
    <style>
      .cls-1 {
        fill: none;
        stroke-width: 3.38px;
      }

      .cls-1, .cls-2 {
        stroke: #fff;
        stroke-miterlimit: 10;
      }

      .cls-3, .cls-2 {
        fill: #231815;
      }

      .cls-4 {
        fill: #fff;
      }

      .cls-2 {
        stroke-width: 2.53px;
      }

      .cls-5 {
        clip-path: url(#clippath);
      }
    </style>
    <clipPath id="clippath">
      <path class="cls-1" d="M72.63,50.71c-3.1-10.25.63-21.96-5.3-32.98-5.93-11.02-17.92-10.34-24.15-10.34s-18.22-.69-24.15,10.34c-5.93,11.02-2.2,22.73-5.3,32.98-3.1,10.25-12.41,13.17-7.77,25.72,4.64,12.54,20.92,15.93,37.21,15.93s32.57-3.38,37.21-15.93c4.64-12.54-4.67-15.46-7.77-25.72Z"/>
    </clipPath>
  </defs>
  <g id="illust">
    <g>
      <g>
        <path class="cls-4" d="M72.63,50.71c-3.1-10.25.63-21.96-5.3-32.98-5.93-11.02-17.92-10.34-24.15-10.34s-18.22-.69-24.15,10.34c-5.93,11.02-2.2,22.73-5.3,32.98-3.1,10.25-12.41,13.17-7.77,25.72,4.64,12.54,20.92,15.93,37.21,15.93s32.57-3.38,37.21-15.93c4.64-12.54-4.67-15.46-7.77-25.72Z"/>
        <g>
          <path class="cls-4" d="M25.04,13.2s-13.13-2.71-19.7-7.17C-1.22,1.57-3.09,17.06,7.6,21c10.69,3.94,17.44-7.8,17.44-7.8Z"/>
          <path class="cls-2" d="M61.34,13.2s13.13-2.71,19.7-7.17,8.44,11.03-2.25,14.97c-10.69,3.94-17.44-7.8-17.44-7.8Z"/>
        </g>
        <g>
          <path class="cls-4" d="M51.9,9.22s2.38-2.46,4.03-4.67C57.74,2.13,58.19-.12,59.22,0s2.84,2,2.6,5.54c-.24,3.54-4.17,4.92-4.17,4.92l-5.75-1.24Z"/>
          <path class="cls-4" d="M34.48,9.22s-2.38-2.46-4.03-4.67C28.64,2.13,28.19-.12,27.16,0c-1.03.12-2.84,2-2.6,5.54.24,3.54,4.17,4.92,4.17,4.92l5.75-1.24Z"/>
        </g>
        <g>
          <path class="cls-3" d="M61.72,54.23c0,2.23-1.3,4.03-2.91,4.03s-2.91-1.81-2.91-4.03,1.3-4.03,2.91-4.03,2.91,1.81,2.91,4.03Z"/>
          <path class="cls-3" d="M30.47,54.23c0,2.23-1.3,4.03-2.91,4.03s-2.91-1.81-2.91-4.03,1.3-4.03,2.91-4.03,2.91,1.81,2.91,4.03Z"/>
        </g>
        <path class="cls-3" d="M73.56,83.37c-1.94-2.02-4.2-3.78-6.56-5.27-2.37-1.5-4.87-2.78-7.47-3.76-2.62-.92-5.27-1.79-8.03-2.18-1.36-.3-2.75-.38-4.13-.55-1.38-.12-2.78-.11-4.17-.18-1.39.07-2.79.05-4.17.18-1.38.18-2.77.25-4.13.55-2.76.39-5.41,1.26-8.03,2.18-2.61.98-5.1,2.26-7.47,3.76-2.37,1.49-4.62,3.25-6.56,5.27l-.6-.44c1.66-2.46,3.79-4.5,6.1-6.33,2.33-1.79,4.86-3.36,7.58-4.55,5.41-2.43,11.38-3.55,17.29-3.6,5.91.04,11.88,1.17,17.29,3.6,2.72,1.19,5.25,2.76,7.58,4.55,2.31,1.83,4.44,3.87,6.1,6.33l-.6.44Z"/>
        <g>
          <g class="cls-5">
            <path class="cls-3" d="M49.42,39.25c16.59,13.09,29.99,6.81,29.99,6.81,0,0,3.38-37.19-11.73-43.07-15.11-5.87-28.87.44-30.67,1.57-1.8,1.13-4.18,21.59,12.4,34.68Z"/>
          </g>
          <path class="cls-1" d="M72.63,50.71c-3.1-10.25.63-21.96-5.3-32.98-5.93-11.02-17.92-10.34-24.15-10.34s-18.22-.69-24.15,10.34c-5.93,11.02-2.2,22.73-5.3,32.98-3.1,10.25-12.41,13.17-7.77,25.72,4.64,12.54,20.92,15.93,37.21,15.93s32.57-3.38,37.21-15.93c4.64-12.54-4.67-15.46-7.77-25.72Z"/>
        </g>
      </g>
      <g>
        <path class="cls-4" d="M43.19,114.23c-11.6,0-21.03-9.43-21.03-21.03,0-4.5,1.42-8.81,4.11-12.46.76-1.03,1.98-1.65,3.26-1.65.87,0,1.7.27,2.4.79,1.8,1.33,2.18,3.87.86,5.66-1.66,2.24-2.53,4.89-2.53,7.65,0,7.13,5.8,12.93,12.93,12.93s12.93-5.8,12.93-12.93c0-2.76-.88-5.41-2.53-7.65-1.33-1.8-.94-4.34.85-5.66.7-.52,1.53-.79,2.4-.79,1.28,0,2.5.62,3.26,1.65,2.69,3.65,4.11,7.95,4.11,12.46,0,11.6-9.43,21.03-21.03,21.03Z"/>
        <path class="cls-3" d="M56.84,80.45c.83,0,1.64.38,2.18,1.1,2.52,3.41,3.85,7.44,3.85,11.66,0,10.85-8.83,19.68-19.68,19.68s-19.68-8.83-19.68-19.68c0-4.21,1.33-8.25,3.85-11.66.53-.72,1.35-1.1,2.17-1.1.56,0,1.12.17,1.6.53,1.2.89,1.45,2.58.57,3.78-1.83,2.48-2.79,5.4-2.79,8.45,0,7.87,6.41,14.28,14.28,14.28s14.28-6.41,14.28-14.28c0-3.05-.97-5.98-2.79-8.45-.89-1.2-.63-2.89.57-3.78.48-.36,1.04-.53,1.6-.53M56.84,77.75h0c-1.16,0-2.27.36-3.2,1.05-2.4,1.77-2.91,5.16-1.14,7.55,1.48,2.01,2.27,4.38,2.27,6.85,0,6.38-5.19,11.58-11.58,11.58s-11.58-5.19-11.58-11.58c0-2.47.78-4.84,2.27-6.85,1.77-2.4,1.26-5.78-1.14-7.55-.94-.69-2.04-1.05-3.2-1.05-1.71,0-3.33.82-4.35,2.19-2.86,3.88-4.38,8.47-4.38,13.26,0,12.34,10.04,22.38,22.38,22.38s22.38-10.04,22.38-22.38c0-4.8-1.51-9.38-4.38-13.26-1.02-1.37-2.64-2.19-4.35-2.19h0Z"/>
      </g>
    </g>
  </g>
</svg>