<?xml version="1.0" encoding="UTF-8"?>
<svg id="_レイヤー_2" data-name="レイヤー 2" xmlns="http://www.w3.org/2000/svg" viewBox="0 0 83.55 98.58">
  <defs>
    <style>
      .cls-1 {
        fill: #fff;
      }

      .cls-2 {
        fill: none;
        stroke: #231815;
        stroke-linecap: round;
        stroke-miterlimit: 10;
        stroke-width: 3.6px;
      }
    </style>
  </defs>
  <g id="illust">
    <g>
      <path class="cls-1" d="M35.66,3.07c6.55-4.73,18.9-5.39,33.14,8.19s18.52,34.5,11.28,55.91c-7.23,21.4-34.49,32.65-52.02,31.3-17.53-1.35-34.75-21.79-25.46-36.99,9.28-15.2,26.57-7.95,33.87-11.15s12.59-9.42,10.96-15.56-7.31-10.6-10.96-13.44-7.36-13.52-.81-18.25Z"/>
      <path class="cls-2" d="M57.43,45.22c-.73,3.01-2.26,6.03-5.14,8.56-7.58,6.65-15.34,7.81-20.98,7.42"/>
      <path class="cls-2" d="M56.14,30.45s.74,1.79,1.29,4.48"/>
    </g>
  </g>
</svg>