<?xml version="1.0" encoding="UTF-8"?>
<svg id="_レイヤー_2" data-name="レイヤー 2" xmlns="http://www.w3.org/2000/svg" viewBox="0 0 116.06 115.24">
  <defs>
    <style>
      .cls-1 {
        fill: #231815;
      }

      .cls-2 {
        fill: #fff;
      }
    </style>
  </defs>
  <g id="illust">
    <g>
      <path class="cls-2" d="M27.48,13.8s-.55-2.92.35-6.06c.86-2.99,3.1-6.19,6.4-7.25,6.75-2.16,4.85,3.39,4.85,3.39,0,0,3.23-.98,4.85.35,1.62,1.34-.49,2.88-.49,2.88,0,0,3.97-.33,4.01,1.27.04,1.59-1.82,1.76-2.74,2.81-1.53,1.75-1.49,3.86-1.49,3.86l-15.73-1.26Z"/>
      <g>
        <path class="cls-2" d="M50.12,113.89c-1.74,0-3.15-1.41-3.15-3.15s1.41-3.15,3.15-3.15c.07,0,.14,0,.21.02,0,0,.42.06,1,.06,1.19,0,2.1-.26,2.5-.72.25-.4.64-2.66.4-8.33-.45-.38-.84-.79-1.13-1.13-.33.06-.73.1-1.16.1-1.71,0-3.09-.69-4-1.99-.44-.63-.81-1.64-.45-3.1-18.94-5.6-37.64-24.63-37.64-51.13,0-.65.01-1.31.04-1.95l-7.54-2.1c-.53-.15-.92-.6-.98-1.15-.06-.55.22-1.08.71-1.34l9.47-5.05c4.16-12.78,15.11-17.36,24.06-17.36,7.3,0,13.73,2.97,16.01,7.4,2.03,3.94,2.88,6.75,3.56,9,.11.1.21.22.28.35.17.31.26.76.17,1.11,3.39,6.11,10.72,10.95,19.11,12.62,1.33.26,2.94.39,4.94.39s4.24-.13,6.36-.26c1.82-.11,3.89-.24,5.75-.24,3.74,0,5.7.52,6.58,1.73.58.81.96,1.65,1.16,2.51.02-.62.47-1.16,1.11-1.28,1.7-.31,3.32-.67,4.76-.99,2.6-.57,4.65-1.03,6.15-1.03.48,0,1.92,0,2.72,1.08.52.7.6,1.64.24,2.77-1.4,4.49-4.78,6.03-7.16,7.01,1.86.68,3.75,1.39,4.14,2.87.1.4.17,1.2-.54,2.03-1.84,2.12-7.3,4.64-9.11,5.43-1.52,3.69-11,24.32-34.81,28.48.08,1.01-.14,1.91-.65,2.67-1.06,1.56-2.38,1.89-3.3,1.89h0c-.63,0-1.2-.16-1.66-.34-.29.29-.66.63-1.06.95v12.16c0,1.74-1.41,3.15-3.15,3.15h-7.05ZM56.31,72.75c.57.15,1.14.23,1.69.23s1.03-.07,1.51-.2c-.48.12-.99.19-1.52.19s-1.11-.07-1.67-.22ZM45.6,62.73c.15.31,3.78,7.51,9.81,9.73-5.99-2.21-9.65-9.42-9.81-9.73ZM70.6,70.01c1.34.54,2.9.92,4.65.92.7,0,1.4-.06,2.11-.18-.7.12-1.4.18-2.09.18-1.77,0-3.34-.38-4.67-.91ZM65.59,66.55c-.08.21-.38.92-.89,1.8.05-.08.09-.15.13-.22.2-.35.54-.59.93-.66.08-.02.16-.02.25-.02.27,0,.53.08.76.23-.65-.55-1.05-1-1.17-1.13ZM90.47,58.8c-3.04.78-5.88.8-5.93.8,0,.03.04,1.43-.31,3.24.19-.92.26-1.66.28-2.03.04-.67.58-1.21,1.25-1.26,1.02-.07,2.81-.26,4.7-.75ZM97.63,54.26c-.5.67-1.07,1.29-1.67,1.84.63-.57,1.19-1.19,1.67-1.84Z"/>
        <path class="cls-1" d="M35.6,13.78c6.71,0,12.73,2.62,14.81,6.66,2.26,4.4,3.02,7.32,3.75,9.72l.1-.34s.04.06.05.09c-.09.33-.06.7.12,1.02,3.58,6.45,11.26,11.55,20.03,13.29,1.57.31,3.34.42,5.2.42,2.08,0,4.28-.13,6.45-.27,1.83-.11,3.85-.24,5.67-.24,2.62,0,4.83.26,5.48,1.17,2.43,3.37.42,7.56-2.48,10.02-3.36,2.86-10.16,2.91-10.23,2.91-.36,0-.71.15-.96.41-.25.26-.39.61-.38.98,0,.09.15,8.63-5.91,9.75-.71.13-1.38.19-2.03.19-5.21,0-8.51-3.73-8.66-3.91-.26-.3-.64-.47-1.03-.47-.08,0-.15,0-.23.02-.47.08-.86.4-1.03.85-.1.25-2.19,5.56-6.34,5.56-.49,0-1.01-.07-1.56-.24-5.83-1.76-9.57-9.18-9.61-9.25-.24-.47-.71-.75-1.21-.75-.2,0-.41.05-.6.14-.67.33-.94,1.14-.61,1.81.17.35,4.29,8.53,11.25,10.64.83.25,1.62.36,2.36.36,3.81,0,6.53-2.94,8-5.52,1.74,1.44,4.96,3.48,9.25,3.48.81,0,1.66-.07,2.54-.24,5.93-1.09,7.82-7.16,8.09-11.14,2.41-.17,7.53-.83,10.66-3.5,3.41-2.9,4.96-6.83,4.34-10.31,4.61-.85,8.5-1.99,10.67-1.99,1.49,0,2.16.54,1.67,2.1-1.65,5.28-6.45,5.88-8.4,7.08-1.95,1.2,7.05,2.1,5.1,4.35-1.95,2.25-9.14,5.3-9.14,5.3,0,0-8.72,24.55-35.36,28.38.34,1.06.42,2.15-.17,3.02-.68,1-1.47,1.3-2.18,1.3-1.07,0-1.94-.68-1.94-.68,0,0-.95,1.18-2.13,1.94v12.85c0,.99-.81,1.8-1.8,1.8h-7.05c-.99,0-1.8-.81-1.8-1.8s.81-1.8,1.8-1.8c0,0,.51.08,1.21.08,1.09,0,2.65-.19,3.51-1.18.96-1.1.86-6.55.7-9.91-1.1-.76-1.92-1.96-1.92-1.96,0,0-.74.28-1.68.28s-2.1-.28-2.89-1.41c-.63-.9-.34-2.11.22-3.23-18-4.67-38.07-22.58-38.07-50.22,0-1.02.03-2.01.1-2.96l-8.59-2.39,9.95-5.31c3.73-12.25,13.96-16.94,22.94-16.94M35.6,11.08s0,0,0,0c-9.31,0-20.67,4.69-25.17,17.77l-8.99,4.8c-.97.52-1.53,1.58-1.41,2.68.12,1.1.9,2.01,1.96,2.31l6.52,1.81c0,.31,0,.62,0,.94,0,13.3,4.47,25.56,12.93,35.48,6.56,7.69,15.4,13.64,24.56,16.6-.05,1.28.37,2.25.84,2.93,1.16,1.65,2.97,2.56,5.1,2.56.22,0,.43,0,.63-.03.1.11.21.21.33.32.17,4.52-.1,6.3-.23,6.89-.21.08-.64.18-1.33.18-.46,0-.8-.05-.8-.05-.13-.02-.27-.03-.41-.03-2.48,0-4.5,2.02-4.5,4.5s2.02,4.5,4.5,4.5h7.05c2.48,0,4.5-2.02,4.5-4.5v-11.53s.04-.03.06-.05c.4.1.84.16,1.31.16,1.76,0,3.32-.88,4.41-2.48.37-.55.73-1.31.86-2.3,23.08-4.54,32.48-23.67,34.55-28.6,2.33-1.05,7.21-3.4,9.08-5.56.82-.94,1.12-2.13.83-3.25-.31-1.19-1.16-1.99-2.2-2.6,2.03-1.2,4.14-3.11,5.21-6.54.61-1.96.1-3.24-.44-3.98-.8-1.08-2.08-1.63-3.8-1.63s-3.76.47-6.44,1.06c-1.43.31-3.04.67-4.71.98-.14.03-.28.06-.41.11-.16-.27-.33-.54-.52-.81-1.45-2.01-4.54-2.29-7.67-2.29-1.9,0-3.99.13-5.83.24-2.11.13-4.28.26-6.29.26-1.9,0-3.43-.12-4.67-.37-7.84-1.56-14.68-5.98-17.97-11.57.02-.49-.1-.98-.34-1.41-.02-.03-.06-.1-.08-.14-.07-.11-.14-.22-.22-.32-.68-2.26-1.57-5.05-3.56-8.93-2.54-4.94-9.29-8.13-17.21-8.13h0Z"/>
      </g>
      <ellipse class="cls-1" cx="23.34" cy="29.41" rx="2.56" ry="3.42"/>
    </g>
  </g>
</svg>