<?xml version="1.0" encoding="UTF-8"?>
<svg id="_レイヤー_2" data-name="レイヤー 2" xmlns="http://www.w3.org/2000/svg" viewBox="0 0 122.78 98.74">
  <defs>
    <style>
      .cls-1 {
        fill: #fff;
      }
    </style>
  </defs>
  <g id="illust">
    <g>
      <path class="cls-1" d="M75.67,46.7c-9.22-4.18-11.42-10.17-14.27-10.17s-5.05,6-14.27,10.17c-9.22,4.18-21.96,16.99-15.59,32.41,6.37,15.42,19.98,15.29,29.87,15.29s23.5.13,29.87-15.29c6.37-15.42-6.37-28.24-15.59-32.41Z"/>
      <g>
        <path class="cls-1" d="M27.14,57.94c-1.59-2.54-12.73-12.73-15.79-13.42-3.06-.69-6.57,3.43-5.01,6.14s14.21,10.93,17.7,12.56c3.49,1.62,4.7-2.73,3.1-5.28Z"/>
        <path class="cls-1" d="M23.93,67.06c-2.34-2.02-16.19-8.83-19.31-8.66s-5.09,5.09-2.72,7.28c2.37,2.19,16.99,6.69,20.83,7.31,3.83.62,3.54-3.91,1.21-5.93Z"/>
        <path class="cls-1" d="M23.19,77.48c-2.96-1.11-18.43-2.84-21.22-1.63-2.79,1.21-2.6,6.51.47,7.77,3.06,1.26,18.3.56,22.06-.16,3.76-.71,1.66-4.88-1.31-5.99Z"/>
        <path class="cls-1" d="M26.96,87.15c-2.77.39-15.81,5-17.64,6.8-1.83,1.8.15,5.09,3.05,4.77,2.9-.33,14.92-6.4,17.7-8.24,2.78-1.84-.34-3.71-3.11-3.32Z"/>
      </g>
      <g>
        <path class="cls-1" d="M95.65,57.94c1.59-2.54,12.73-12.73,15.79-13.42,3.06-.69,6.57,3.43,5.01,6.14s-14.21,10.93-17.7,12.56-4.7-2.73-3.1-5.28Z"/>
        <path class="cls-1" d="M98.85,67.06c2.34-2.02,16.19-8.83,19.31-8.66,3.12.17,5.09,5.09,2.72,7.28-2.37,2.19-16.99,6.69-20.83,7.31-3.83.62-3.54-3.91-1.21-5.93Z"/>
        <path class="cls-1" d="M99.6,77.48c2.96-1.11,18.43-2.84,21.22-1.63,2.79,1.21,2.6,6.51-.47,7.77-3.06,1.26-18.3.56-22.06-.16-3.76-.71-1.66-4.88,1.31-5.99Z"/>
        <path class="cls-1" d="M95.83,87.15c2.77.39,15.81,5,17.64,6.8,1.83,1.8-.15,5.09-3.05,4.77-2.9-.33-14.92-6.4-17.7-8.24-2.78-1.84.34-3.71,3.11-3.32Z"/>
      </g>
      <g>
        <g>
          <path class="cls-1" d="M73.72,39.71c-.61,1.34-2.13,1.9-3.38,1.24-1.25-.66-1.77-2.28-1.16-3.62s2.13-1.9,3.38-1.24c1.25.66,1.77,2.28,1.16,3.62Z"/>
          <path class="cls-1" d="M70.19,43.33c-1,2.2-2.16,3.81-2.57,3.6-.42-.22.06-2.18,1.06-4.39,1-2.2,2.16-3.81,2.57-3.6.42.22-.06,2.18-1.06,4.39Z"/>
        </g>
        <g>
          <path class="cls-1" d="M49.06,39.71c.61,1.34,2.13,1.9,3.38,1.24,1.25-.66,1.77-2.28,1.16-3.62-.61-1.34-2.13-1.9-3.38-1.24s-1.77,2.28-1.16,3.62Z"/>
          <path class="cls-1" d="M52.59,43.33c1,2.2,2.16,3.81,2.57,3.6.42-.22-.06-2.18-1.06-4.39-1-2.2-2.16-3.81-2.57-3.6-.42.22.06,2.18,1.06,4.39Z"/>
        </g>
      </g>
      <g>
        <g>
          <path class="cls-1" d="M27.06,8.16c-8.33,8.67-11.8,22.34-2.81,28.68s16.65-4.47,20.46-10.46c3.81-6,6.51-17.69,5.51-16.89-1.01.81-3.44,4.96-5.55,6.81-2.11,1.85-3.11,2.66-5.18,3.59-1.5-2.43-2.26-3.74-1.56-7.39,1.17-6.09,8.28-11.2,9.34-12.11,1.07-.91-11.88-.91-20.21,7.77Z"/>
          <path class="cls-1" d="M27.26,31.59s4.02,7.34,9.46,12.07c5.43,4.73,10.96,7.43,10.96,7.43l-7.96,5.48s-6.39-2.77-10.39-8.76c-4-5.99-5.71-15.43-5.71-15.43l3.64-.79Z"/>
        </g>
        <g>
          <path class="cls-1" d="M95.72,8.16c8.33,8.67,11.8,22.34,2.81,28.68s-16.65-4.47-20.46-10.46c-3.81-6-6.51-17.69-5.51-16.89,1.01.81,3.44,4.96,5.55,6.81,2.11,1.85,3.11,2.66,5.18,3.59,1.5-2.43,2.27-3.74,1.56-7.39-1.17-6.09-8.28-11.2-9.34-12.11-1.07-.91,11.88-.91,20.21,7.77Z"/>
          <path class="cls-1" d="M95.52,31.59s-4.02,7.34-9.46,12.07c-5.43,4.73-10.96,7.43-10.96,7.43l7.96,5.48s6.39-2.77,10.39-8.76c4-5.99,5.71-15.43,5.71-15.43l-3.64-.79Z"/>
        </g>
      </g>
    </g>
  </g>
</svg>