<svg width="32" height="32" viewBox="0 0 32 32" fill="none" xmlns="http://www.w3.org/2000/svg">
<path d="M24.3743 17.7032C24.3743 23.8899 20.5306 27.2 15.7873 27.2C11.0439 27.2 7.2002 23.8899 7.2002 17.7032C7.2002 11.5164 11.8945 4.80005 15.7873 4.80005C19.6801 4.80005 24.3743 11.5184 24.3743 17.7032Z" fill="#FCFCFC" stroke="#131213" stroke-miterlimit="10"/>
<path d="M14.5 8.75049C14.5 9.16405 14.1638 9.50049 13.75 9.50049C13.3362 9.50049 13 9.1657 13 8.75049C13 8.33528 13.3362 8.00049 13.75 8.00049C14.1638 8.00049 14.5 8.33528 14.5 8.75049Z" fill="#131213"/>
<path d="M11.8944 11.2749C11.8944 11.2749 10.9989 12.5057 10.3344 14.2702C9.66992 16.0346 9.66992 17.57 9.66992 17.57" stroke="#131213" stroke-miterlimit="10" stroke-linecap="round"/>
</svg>
