<?xml version="1.0" encoding="UTF-8"?>
<svg id="_レイヤー_2" data-name="レイヤー 2" xmlns="http://www.w3.org/2000/svg" viewBox="0 0 93.57 89.94">
  <defs>
    <style>
      .cls-1 {
        stroke-width: 1.8px;
      }

      .cls-1, .cls-2 {
        fill: none;
        stroke: #fff;
        stroke-linecap: round;
        stroke-linejoin: round;
      }

      .cls-2 {
        stroke-width: 3.6px;
      }
    </style>
  </defs>
  <g id="illust">
    <g>
      <path class="cls-2" d="M83.22,17.06c0-3.94-4.49-7.19-10.27-7.62-.88-3.17-5.05-5.57-10.09-5.57-1.99,0-3.83.38-5.4,1.03-2.15-1.85-6.12-3.1-10.67-3.1s-8.52,1.25-10.67,3.1c-1.57-.65-3.42-1.03-5.4-1.03-5.03,0-9.21,2.4-10.09,5.57-5.78.43-10.27,3.68-10.27,7.62s4.28,7.02,9.85,7.58c1.84,2.63,5.84,4.46,10.51,4.46.73,0,1.44-.05,2.14-.14,2.99,2.07,8.12,3.44,13.94,3.44s10.95-1.37,13.94-3.44c.69.09,1.41.14,2.14.14,4.66,0,8.67-1.83,10.51-4.46,5.57-.55,9.85-3.73,9.85-7.58Z"/>
      <path class="cls-2" d="M10.35,17.06L2.07,68.89c-.18.55-.27,1.12-.27,1.7,0,4.4,5.28,8.03,12.16,8.67,2.27,3.01,7.22,5.1,12.97,5.1.9,0,1.78-.06,2.64-.16,3.69,2.37,10.02,3.93,17.21,3.93s13.52-1.56,17.21-3.93c.86.1,1.73.16,2.64.16,5.76,0,10.71-2.09,12.97-5.1,6.88-.63,12.16-4.27,12.16-8.67,0-.58-.1-1.15-.27-1.7l-8.28-51.84"/>
      <path class="cls-1" d="M20.56,62.87c-3.13,1.12-5.4,3.05-6.08,5.31M53.54,60.19c-2.04-.47-4.33-.74-6.76-.74-5.62,0-10.52,1.42-13.18,3.54-1.66-.63-3.58-1.04-5.63-1.15M78.53,66.92c-1.78-2.98-6.43-5.1-11.89-5.1-2.45,0-4.73.43-6.67,1.17"/>
      <line class="cls-2" x1="73.37" y1="24.63" x2="76.79" y2="52.6"/>
      <line class="cls-2" x1="62.31" y1="44.72" x2="64.58" y2="77.86"/>
      <line class="cls-2" x1="17.43" y1="46.09" x2="15.38" y2="61.82"/>
      <line class="cls-2" x1="18.99" y1="34.11" x2="18.41" y2="38.62"/>
    </g>
  </g>
</svg>