<?xml version="1.0" encoding="UTF-8"?>
<svg id="_レイヤー_2" data-name="レイヤー 2" xmlns="http://www.w3.org/2000/svg" viewBox="0 0 99.81 88.96">
  <defs>
    <style>
      .cls-1 {
        stroke: #231815;
        stroke-miterlimit: 10;
        stroke-width: 5.64px;
      }

      .cls-1, .cls-2 {
        fill: #fff;
      }

      .cls-3 {
        fill: #231815;
      }
    </style>
  </defs>
  <g id="illust">
    <g>
      <path class="cls-2" d="M96.99,20.47H2.82s-1.71,32.15,8.56,48.89c10.27,16.74,21.31,19.59,38.52,19.59s28.25-2.85,38.52-19.59c10.27-16.74,8.56-48.89,8.56-48.89Z"/>
      <ellipse class="cls-1" cx="49.91" cy="20.47" rx="47.08" ry="17.65"/>
      <g>
        <path class="cls-3" d="M58.02,18.53c0,.42-.59,1.53-1.28,1.87-.42.2-1.15.25-1.76.41-.49.12-1.19-.39-1.77-.3-.52.07-1.08-.14-1.66-.1-.53.03-1.07,1.09-1.63,1.09s-1.13-.6-1.66-.64c-.58-.04-1.21.38-1.73.31-.59-.08-1.22-.11-1.71-.23-.61-.15-1.01-.96-1.43-1.16-.69-.33-1.81-.82-1.81-1.24s1.33-.48,2.02-.81c.42-.2.91-.25,1.52-.4.49-.12,1.02.05,1.61-.03.52-.07.96-.85,1.54-.89.53-.03,1.08.02,1.65.02s1.09.4,1.62.43c.58.04,1.15-.29,1.67-.22.59.08,1.34-.68,1.83-.56.61.15.66,1.72,1.08,1.92.69.33,1.91.14,1.91.55Z"/>
        <g>
          <path class="cls-3" d="M49.28,30.17c-4.49,0,.03-6.16.03-6.16,0,0,4.46,6.16-.03,6.16Z"/>
          <path class="cls-3" d="M59.71,28.63c-3.75,1.84-4.12-5.24-4.12-5.24,0,0,7.76,3.45,4.12,5.24Z"/>
          <path class="cls-3" d="M69.72,25.09c-1.71,3.04-6.82-2.91-6.82-2.91,0,0,8.45.02,6.82,2.91Z"/>
          <path class="cls-3" d="M72.56,18.73c.63,3.15-7.11,0-7.11,0,0,0,6.51-2.99,7.11,0Z"/>
          <path class="cls-3" d="M65.72,13.28c2.07,2.17-4.96,2.18-4.96,2.18,0,0,2.97-4.27,4.96-2.18Z"/>
          <path class="cls-3" d="M57.96,11.15c2.73,1.07-2.46,3.3-2.46,3.3,0,0-.21-4.36,2.46-3.3Z"/>
          <path class="cls-3" d="M50.34,10.51c3.34,0,.02,3.55.02,3.55,0,0-3.36-3.55-.02-3.55Z"/>
          <path class="cls-3" d="M42.57,11.32c2.67-1.06,2.49,3.31,2.49,3.31,0,0-5.22-2.24-2.49-3.31Z"/>
          <path class="cls-3" d="M34.35,13.67c1.99-2.1,4.99,2.2,4.99,2.2,0,0-7.06-.01-4.99-2.2Z"/>
          <path class="cls-3" d="M27.26,18.25c.59-2.96,7.08,0,7.08,0,0,0-7.7,3.13-7.08,0Z"/>
          <path class="cls-3" d="M29.01,24.71c-1.6-2.87,6.82-2.89,6.82-2.89,0,0-5.15,5.91-6.82,2.89Z"/>
          <path class="cls-3" d="M38.54,28.63c-3.62-1.79,4.18-5.24,4.18-5.24,0,0-.45,7.08-4.18,5.24Z"/>
        </g>
      </g>
    </g>
  </g>
</svg>