<?xml version="1.0" encoding="UTF-8"?>
<svg id="_レイヤー_2" data-name="レイヤー 2" xmlns="http://www.w3.org/2000/svg" viewBox="0 0 109.87 82.35">
  <defs>
    <style>
      .cls-1 {
        stroke: #fff;
        stroke-width: 1.69px;
      }

      .cls-1, .cls-2 {
        fill: none;
        stroke-linecap: round;
        stroke-miterlimit: 10;
      }

      .cls-3 {
        fill: #231815;
      }

      .cls-4 {
        fill: #fff;
      }

      .cls-2 {
        stroke: #231815;
        stroke-width: 2.53px;
      }
    </style>
  </defs>
  <g id="illust">
    <g>
      <g>
        <path class="cls-3" d="M5.36,23.44c4.16-3.3,16.72-12.5,33.2-17.51,11.55-3.51,22.26-4.24,29.22-4.24,4.89,0,8.16.36,8.88.45,1.42.48,12.89,4.43,19.22,9.74,5.83,4.89,10.93,15.58,12.17,18.28-1.18,2.87-6.5,15.1-16.88,28.43-9.75,12.51-19.33,19.2-22.4,21.16L5.36,23.44Z"/>
        <path class="cls-4" d="M67.77,0v3.37c4.49,0,7.58.31,8.51.42,1.91.65,12.61,4.42,18.51,9.38,5.17,4.34,9.82,13.64,11.41,17.02-1.57,3.7-6.78,15.05-16.37,27.36-8.65,11.11-17.17,17.54-20.92,20.08L8,23.53c5.17-3.89,16.58-11.59,31.05-15.99,11.35-3.45,21.89-4.17,28.73-4.17V0M67.77,0c-7.26,0-18.06.78-29.71,4.32C17.23,10.65,2.76,23.39,2.76,23.39l65.81,58.46s11.77-6.63,23.91-22.22c12.14-15.59,17.38-29.51,17.38-29.51,0,0-5.85-13.6-12.91-19.53C89.9,4.66,77.03.49,77.03.49c0,0-3.53-.49-9.26-.49h0Z"/>
      </g>
      <path class="cls-4" d="M1.35,25.22c3.07-7.9,30.62-2.99,49.1,16.5,18.48,19.49,24.37,41.11,16.05,40.63-8.32-.49-35.04-11.78-51.04-25.7C-.53,42.72-1.72,33.11,1.35,25.22Z"/>
      <path class="cls-2" d="M35.04,50.72c-1.32,5.68-4.48,10.06-4.48,10.06"/>
      <path class="cls-2" d="M9.58,29.27s23.41,3.88,25.59,12.98"/>
      <path class="cls-2" d="M38.55,55.18s7.91-6.18,13.52.18c5.6,6.36,8.79,18.35,8.79,18.35"/>
      <g>
        <path class="cls-1" d="M33.66,9.23s3.12,8.74,7.62,11.52c4.5,2.78,5.55,2.47,8.74,4.78,3.2,2.31,4.8,4.78,4.8,4.78"/>
        <path class="cls-1" d="M42.85,6.7s3.12,8.74,7.62,11.52c4.5,2.78,5.55,2.47,8.74,4.77,3.2,2.31,4.8,4.78,4.8,4.78"/>
        <path class="cls-1" d="M51.45,4.48s2.57,7.22,6.29,9.51c3.72,2.3,4.58,2.04,7.22,3.94,2.64,1.9,3.96,3.94,3.96,3.94"/>
        <path class="cls-1" d="M58.83,2.8s2.2,6.18,5.39,8.15,3.92,1.75,6.18,3.38c2.26,1.63,3.39,3.38,3.39,3.38"/>
        <path class="cls-1" d="M67.42,2.57s1.53,4.28,3.73,5.64c2.2,1.36,2.71,1.21,4.28,2.34s2.35,2.34,2.35,2.34"/>
      </g>
      <path class="cls-4" d="M61.74,37.86c.86-.31,3.8,1.45,4.48,2.64.68,1.19.72,3.47-.74,2.9s-2.47-.97-3.62-2.53c-1.15-1.56-1.47-2.53-.12-3.02Z"/>
      <path class="cls-4" d="M69.41,33.86c.71-.25,3.14,1.2,3.7,2.18.56.98.59,2.86-.61,2.39s-2.04-.8-2.99-2.08c-.95-1.29-1.21-2.09-.1-2.49Z"/>
      <path class="cls-4" d="M74.83,29.15c.54-.19,2.39.91,2.82,1.66.43.75.45,2.18-.47,1.83s-1.56-.61-2.28-1.59-.92-1.59-.07-1.9Z"/>
      <path class="cls-4" d="M79.39,24.23c.54-.19,2.39.91,2.82,1.66s.45,2.18-.47,1.83c-.92-.36-1.56-.61-2.28-1.59-.73-.98-.92-1.59-.07-1.9Z"/>
      <path class="cls-4" d="M84.07,19.35c.54-.19,2.39.91,2.82,1.66.43.75.45,2.18-.47,1.83-.92-.36-1.56-.61-2.28-1.59s-.92-1.59-.07-1.9Z"/>
    </g>
  </g>
</svg>