<?xml version="1.0" encoding="UTF-8"?>
<svg id="_レイヤー_2" data-name="レイヤー 2" xmlns="http://www.w3.org/2000/svg" viewBox="0 0 86.17 112.12">
  <defs>
    <style>
      .cls-1 {
        stroke-linejoin: round;
        stroke-width: 4.47px;
      }

      .cls-1, .cls-2 {
        fill: #fff;
      }

      .cls-1, .cls-3 {
        stroke: #231815;
      }

      .cls-3 {
        fill: none;
        stroke-linecap: round;
        stroke-miterlimit: 10;
        stroke-width: 3.35px;
      }
    </style>
  </defs>
  <g id="illust">
    <g>
      <path class="cls-2" d="M51.76,66.41c6.52-19.34,13.72-24.88,13.72-24.88,0,0,.02-10.16-11.94-15.79-11.95-5.63-19.77.86-19.77.86,0,0,.31,9.08-10.43,26.43C12.59,70.38.61,75.5.04,86.87c-.58,11.37,5.66,18.5,14.14,22.49,8.48,3.99,17.95,4.26,26.35-3.44,8.39-7.69,4.71-20.19,11.23-39.52Z"/>
      <path class="cls-1" d="M62.82,6.04c-22.41-10.55-43.48,2.82-44.15,15.53-.67,12.71,12.13,17.5,25.62,23.84,13.49,6.35,25.33,13.16,34.7,4.55,9.37-8.61,6.24-33.37-16.17-43.92Z"/>
      <g>
        <path class="cls-3" d="M8.63,92.4c.33,2.41,1.1,3.9,1.1,3.9"/>
        <path class="cls-3" d="M30.79,57.16c-1.48,2.97-3.68,6.89-6.37,10.22-3.82,4.73-9.48,9.32-12.83,13.84"/>
      </g>
    </g>
  </g>
</svg>