<?xml version="1.0" encoding="UTF-8"?>
<svg id="_レイヤー_2" data-name="レイヤー 2" xmlns="http://www.w3.org/2000/svg" viewBox="0 0 58.56 122.52">
  <defs>
    <style>
      .cls-1, .cls-2 {
        fill: #231815;
      }

      .cls-3 {
        fill: #fff;
      }

      .cls-2 {
        stroke-linejoin: round;
        stroke-width: 3px;
      }

      .cls-2, .cls-4 {
        stroke: #fff;
      }

      .cls-4 {
        fill: none;
        stroke-linecap: round;
        stroke-miterlimit: 10;
        stroke-width: 2.24px;
      }
    </style>
  </defs>
  <g id="illust">
    <g>
      <path class="cls-2" d="M45.57,23.61H12.99S1.5,41.16,1.5,52.53v57.79c0,5.91,12.44,10.69,27.78,10.69s27.78-4.79,27.78-10.69v-57.79c0-11.37-11.49-28.92-11.49-28.92Z"/>
      <g>
        <path class="cls-1" d="M29.28,34.02c-4.9,0-6.85-1.99-8.73-3.92l-.47-.48c-.63-.63-1.8-.76-2.68-.76-1.53,0-3.53.41-5.48,1.11-.77.28-1.56.42-2.36.42-1.73,0-3.33-.71-4.28-1.9-.82-1.02-1.1-2.31-.8-3.63.49-2.18,2.28-3.67,4-5.12.88-.74,1.71-1.44,2.28-2.15,1.75-2.21,2.26-3.51,1.76-4.48-.28-.53-.56-1.15-.83-1.84-.27-.3-.46-.63-.57-.97-.28-.61-.43-1.39-.43-2.2s.15-1.59.43-2.2C12.53,1.72,26.46,1.5,29.28,1.5s16.89.22,18.19,4.49c.26.6.4,1.35.4,2.13s-.14,1.52-.4,2.12c-.11.37-.31.72-.6,1.04-.27.69-.55,1.31-.83,1.84-.51.96,0,2.26,1.76,4.47.57.72,1.4,1.42,2.28,2.16,1.72,1.45,3.51,2.94,4,5.12.3,1.32.01,2.61-.8,3.63-.95,1.19-2.55,1.9-4.28,1.9h0c-.79,0-1.59-.14-2.36-.42-1.95-.71-3.95-1.11-5.48-1.11-.88,0-2.05.13-2.68.76l-.47.48c-1.88,1.93-3.83,3.92-8.73,3.92Z"/>
        <path class="cls-3" d="M29.28,3c9.02,0,16.38,1.55,16.77,3.49.19.4.32.98.32,1.63s-.12,1.23-.32,1.63c-.05.24-.21.48-.46.71-.25.65-.54,1.34-.87,1.97-.97,1.85.12,3.85,1.91,6.1,1.78,2.25,5.39,4,5.99,6.67.48,2.13-1.33,3.69-3.62,3.69-.59,0-1.22-.1-1.85-.33-1.73-.63-3.99-1.2-5.99-1.2-1.51,0-2.87.33-3.74,1.2-2.03,2.04-3.49,3.95-8.14,3.95s-6.11-1.91-8.14-3.95c-.87-.88-2.23-1.2-3.74-1.2-2,0-4.26.57-5.99,1.2-.63.23-1.25.33-1.85.33-2.29,0-4.1-1.56-3.62-3.69.61-2.68,4.21-4.42,5.99-6.67,1.78-2.25,2.88-4.25,1.91-6.1-.33-.63-.63-1.33-.88-1.98-.24-.22-.4-.44-.45-.67-.2-.4-.33-.99-.33-1.66s.13-1.26.33-1.66c.46-1.93,7.79-3.46,16.77-3.46M29.28,0c-4.53,0-8.85.38-12.18,1.07-4.39.91-6.69,2.25-7.39,4.33-.34.79-.52,1.73-.52,2.73s.18,1.94.53,2.74c.15.43.37.83.67,1.21.27.65.54,1.24.81,1.75,0,0,.24.52-1.6,2.85-.47.6-1.25,1.25-2.07,1.94-1.82,1.53-3.89,3.27-4.5,5.94-.4,1.77-.01,3.51,1.09,4.9,1.25,1.56,3.24,2.46,5.45,2.46.97,0,1.93-.17,2.87-.51,1.79-.65,3.6-1.02,4.97-1.02,1.06,0,1.52.23,1.61.32.16.16.31.31.46.47,1.9,1.95,4.27,4.37,9.81,4.37s7.9-2.42,9.81-4.37c.15-.15.3-.31.46-.47.09-.09.55-.32,1.61-.32,1.37,0,3.18.37,4.97,1.02.94.34,1.9.51,2.87.51,2.22,0,4.21-.9,5.45-2.46,1.11-1.39,1.5-3.13,1.09-4.9-.61-2.67-2.67-4.4-4.5-5.94-.82-.69-1.6-1.34-2.07-1.94-1.84-2.32-1.61-2.84-1.6-2.85.27-.52.54-1.11.81-1.76.36-.46.58-.91.7-1.3.32-.78.49-1.68.49-2.65s-.16-1.85-.48-2.62c-.84-2.71-4.35-3.79-7.37-4.42-3.34-.7-7.68-1.08-12.24-1.08h0Z"/>
      </g>
      <path class="cls-4" d="M40.39,9.28s-4.35,1.63-11.11,1.63-11.11-1.63-11.11-1.63"/>
      <path class="cls-3" d="M9.32,44.05c-1.1,3.07-1.84,6.05-1.84,8.48v57.33c1.4,1.68,8.97,5.18,21.8,5.18s20.4-3.51,21.8-5.18v-57.33c0-2.44-.74-5.41-1.84-8.48-5.2,1.81-12.23,2.93-19.96,2.93s-14.76-1.12-19.96-2.93Z"/>
      <path class="cls-1" d="M30.14,64.59c-14.74,0-23.44-4.03-25.05-5.96v25.07c1.61,1.93,10.31,5.96,25.05,5.96,5.46,0,10.1-.55,13.85-1.35v-25.07c-3.75.79-8.38,1.35-13.85,1.35Z"/>
    </g>
  </g>
</svg>