<?xml version="1.0" encoding="UTF-8"?>
<svg id="_レイヤー_2" data-name="レイヤー 2" xmlns="http://www.w3.org/2000/svg" viewBox="0 0 97.11 98.5">
  <defs>
    <style>
      .cls-1 {
        stroke: #231815;
        stroke-miterlimit: 10;
        stroke-width: 2px;
      }

      .cls-1, .cls-2 {
        fill: #fff;
      }

      .cls-3 {
        fill: #231815;
      }
    </style>
  </defs>
  <g id="illust">
    <g>
      <path class="cls-2" d="M97.11,54.65c0,24.22-16.96,43.85-48.55,43.85S0,78.87,0,54.65,21.74,10.8,48.55,10.8s48.55,19.63,48.55,43.85Z"/>
      <g>
        <g>
          <g>
            <path class="cls-3" d="M48.55,29.39c-.16,0-.31-.07-.41-.19-1.63-1.87-3.03-2.53-5.35-2.53-1.21,0-2.74.19-4.83.6-.03,0-.07.01-.1.01-.21,0-.4-.12-.49-.31-.11-.22-.05-.49.14-.65,1.47-1.26,1.6-1.78,1.55-1.98-.14-.52-1.64-1.04-4.45-1.55-.26-.05-.45-.27-.44-.54,0-.26.19-.49.45-.53,1.23-.2,4.96-.82,5.23-1.64.04-.13,0-.47-.72-1.24-.16-.17-.2-.42-.08-.63.1-.18.28-.29.48-.29.03,0,.06,0,.09,0,1.72.31,3,.45,4.04.45,1.92,0,3.15-.47,4.53-1.72.1-.09.23-.14.36-.14s.26.05.36.14c1.39,1.25,2.61,1.72,4.53,1.72,1.04,0,2.32-.14,4.04-.45.03,0,.06,0,.09,0,.2,0,.38.11.48.29.11.21.08.46-.08.63-.73.77-.77,1.11-.72,1.24.27.82,4.01,1.44,5.23,1.64.26.04.45.27.45.53,0,.26-.18.49-.44.54-2.81.51-4.31,1.04-4.45,1.55-.05.2.08.73,1.55,1.98.19.16.24.43.14.65-.09.19-.28.31-.49.31-.03,0-.07,0-.1-.01-2.09-.41-3.62-.6-4.83-.6-2.33,0-3.73.66-5.35,2.53-.1.12-.25.19-.41.19h0Z"/>
            <path class="cls-2" d="M48.55,17.07c1.41,1.27,2.74,1.86,4.9,1.86,1.12,0,2.45-.16,4.14-.46-1.92,2.02-.88,2.84,4.82,3.79-5.37.98-6.18,1.9-3.16,4.48-2.02-.4-3.62-.61-4.93-.61-2.6,0-4.12.83-5.76,2.72-1.64-1.89-3.16-2.72-5.76-2.72-1.32,0-2.91.21-4.93.61,3.03-2.58,2.22-3.5-3.16-4.48,5.7-.94,6.74-1.77,4.82-3.79,1.68.3,3.02.46,4.14.46,2.15,0,3.49-.58,4.9-1.86M48.55,15.99c-.26,0-.52.09-.73.28-1.29,1.17-2.38,1.58-4.17,1.58-1.01,0-2.26-.14-3.95-.44-.06-.01-.13-.02-.19-.02-.39,0-.76.21-.95.57-.22.41-.15.92.17,1.26.36.38.5.6.55.72-.29.25-1.32.69-4.76,1.26-.52.09-.9.53-.91,1.06s.37.98.89,1.07c2.94.54,3.76.95,3.99,1.15-.07.16-.35.59-1.34,1.44-.37.32-.49.85-.27,1.29.18.38.57.61.97.61.07,0,.14,0,.21-.02,2.05-.4,3.55-.59,4.72-.59,2.17,0,3.42.59,4.95,2.34.21.24.5.37.82.37s.61-.14.82-.37c1.53-1.75,2.77-2.34,4.95-2.34,1.17,0,2.67.19,4.72.59.07.01.14.02.21.02.41,0,.79-.23.97-.61.21-.44.1-.98-.27-1.29-1-.85-1.27-1.28-1.34-1.44.23-.2,1.05-.62,3.99-1.15.52-.09.89-.55.89-1.07s-.39-.97-.91-1.06c-3.44-.57-4.47-1.01-4.76-1.26.05-.11.19-.34.55-.72.32-.34.39-.85.17-1.26-.19-.36-.56-.57-.95-.57-.06,0-.13,0-.19.02-1.69.3-2.94.44-3.95.44-1.79,0-2.88-.41-4.17-1.58-.21-.19-.47-.28-.73-.28h0Z"/>
          </g>
          <path class="cls-3" d="M27.08,80.3c.69,1.36.36,2.91-.74,3.48-1.1.56-2.56-.08-3.25-1.43-.69-1.36-.36-2.91.74-3.48,1.1-.56,2.56.08,3.25,1.43Z"/>
          <path class="cls-3" d="M86.32,51.03c.13,1.52-.77,2.83-2.01,2.94s-2.34-1.04-2.47-2.56c-.13-1.52.77-2.83,2.01-2.94,1.24-.1,2.34,1.04,2.47,2.56Z"/>
          <path class="cls-3" d="M17.82,64.12c.27,1.5-.5,2.89-1.72,3.11-1.22.22-2.43-.82-2.7-2.32-.27-1.5.5-2.89,1.72-3.11,1.22-.22,2.43.82,2.7,2.32Z"/>
          <path class="cls-3" d="M33.6,67.04c.27,1.5-.5,2.89-1.72,3.11-1.22.22-2.43-.82-2.7-2.32-.27-1.5.5-2.89,1.72-3.11,1.22-.22,2.43.82,2.7,2.32Z"/>
          <path class="cls-3" d="M72.53,42.95c.13,1.52-.77,2.83-2.01,2.94-1.24.1-2.34-1.04-2.47-2.56s.77-2.83,2.01-2.94c1.24-.1,2.34,1.04,2.47,2.56Z"/>
          <path class="cls-3" d="M81.73,32.78c.27,1.5-.5,2.89-1.72,3.11-1.22.22-2.43-.82-2.7-2.32-.27-1.5.5-2.89,1.72-3.11,1.22-.22,2.43.82,2.7,2.32Z"/>
        </g>
        <path class="cls-1" d="M85.13,2.86s-3.59,12.7-13.46,17.74-22.26.52-22.26.52c0,0,3.59-12.7,13.46-17.74s22.26-.52,22.26-.52Z"/>
      </g>
    </g>
  </g>
</svg>