<?xml version="1.0" encoding="UTF-8"?>
<svg id="_レイヤー_2" data-name="レイヤー 2" xmlns="http://www.w3.org/2000/svg" viewBox="0 0 111.11 94.15">
  <defs>
    <style>
      .cls-1 {
        fill: #231815;
      }

      .cls-2 {
        fill: #fff;
      }
    </style>
  </defs>
  <g id="illust">
    <g>
      <path class="cls-2" d="M49.31,64.71s16.6-6.63,35.72-.58c19.12,6.05,26.08,19.46,26.08,19.46,0,0-23.87,15.55-41.48,6.83-17.61-8.72-20.32-25.72-20.32-25.72Z"/>
      <path class="cls-2" d="M41.44,73.53s-11.87-6.46-24.42-1.48C4.48,77.02,0,91.03,0,91.03c0,0,17.34,6.54,29.11.69,11.77-5.85,12.33-18.19,12.33-18.19Z"/>
      <g>
        <path class="cls-2" d="M36.68,80.66c-.74,0-1.45-.04-2.11-.13-7.9-1.01-14.85-4.89-19.08-10.64-4.35-5.91-5.81-13.73-4.24-22.6C16.79,15.96,48.65,2.49,50.01,1.94c.22-.09.45-.14.69-.14.19,0,.39.03.58.09,1.65.56,40.44,13.97,47.23,45.32,1.75,8.09.54,15.1-3.62,20.84-4.93,6.81-13.88,11.36-24.57,12.48-.78.08-1.62.12-2.49.12h0c-4.66,0-9.85-1.16-13.39-2.14-.09-.03-.18-.06-.27-.1-12.86-5.92-16.61-21.19-16.64-21.35-.05-.22-.26-.34-.43-.34-.03,0-.07,0-.1.01-.25.06-.4.3-.34.54.11.45,2.74,11.16,11.31,18.26.5.42.74,1.08.62,1.72-.12.64-.58,1.17-1.21,1.38-2.81.92-6.94,2.02-10.68,2.02Z"/>
        <path class="cls-1" d="M50.69,3.6h0s39.39,13.29,46.04,44c4.34,20.05-11.54,29.57-26.61,31.15-.74.08-1.51.11-2.3.11-4.45,0-9.46-1.12-12.91-2.08-11.99-5.52-15.6-19.96-15.64-20.13-.25-1.03-1.17-1.73-2.19-1.73-.17,0-.35.02-.52.06-1.21.29-1.96,1.5-1.67,2.71.14.57,2.9,11.77,11.91,19.23-2.79.92-6.66,1.93-10.12,1.93-.65,0-1.28-.04-1.89-.11-12.33-1.58-25.34-11.1-21.78-31.15C18.45,16.89,50.69,3.6,50.69,3.6M50.69,0c-.47,0-.93.09-1.37.27-1.39.57-34.13,14.41-39.85,46.7-1.66,9.37-.08,17.67,4.56,23.99,4.52,6.15,11.92,10.29,20.31,11.36.74.09,1.53.14,2.34.14,3.2,0,6.98-.71,11.24-2.11,1.03-.34,1.83-1.11,2.22-2.09,1.02.66,2.11,1.26,3.26,1.79.18.08.36.15.55.2,3.64,1.01,9,2.21,13.87,2.21.94,0,1.84-.04,2.68-.13,11.19-1.17,20.61-5.99,25.84-13.21,4.4-6.08,5.76-13.79,3.92-22.28C93.25,14.5,53.53.76,51.84.19c-.37-.13-.76-.19-1.15-.19h0Z"/>
      </g>
    </g>
  </g>
</svg>