<?xml version="1.0" encoding="UTF-8"?>
<svg id="_レイヤー_2" data-name="レイヤー 2" xmlns="http://www.w3.org/2000/svg" viewBox="0 0 84.47 122.82">
  <defs>
    <style>
      .cls-1 {
        fill: #fff;
        stroke: #fff;
        stroke-width: 4.8px;
      }

      .cls-1, .cls-2 {
        stroke-linecap: round;
        stroke-miterlimit: 10;
      }

      .cls-2 {
        fill: none;
        stroke: #231815;
        stroke-width: 3px;
      }
    </style>
  </defs>
  <g id="illust">
    <g>
      <path class="cls-1" d="M30.04,120.42c-4.87,0-9.39-1.1-13.42-3.26-15.52-8.31-18.85-30.02-7.41-48.39,4.36-7,8.74-9.78,15.77-13.64,3.62-1.99,5.17-6.11,3.66-9.75-3.61-8.73,1.08-22.83,9.4-31.32,6.6-6.74,16.57-11.65,25.05-11.65,5.39,0,10.15,1.62,13.79,4.68,4.57,3.85,5.59,10.87,5.07,17.42-.52,6.65-2.34,11.77-7.72,17.26-1.35,1.38-2.82,2.66-4.37,3.81-3.54,2.63-4.29,7.35-1.7,10.8,8.05,10.78,6.14,28.43-2.64,42.54-8.14,13.06-22.06,21.51-35.47,21.51h0Z"/>
      <path class="cls-2" d="M62.19,68.23s-4.52,18.48-12.99,28.88c-8.47,10.4-20.05,15.48-20.05,15.48"/>
      <path class="cls-2" d="M40.79,77.85s-6.27,10.73-11.64,14.97c-5.37,4.24-13.27,6.21-13.27,6.21"/>
      <line class="cls-2" x1="30.53" y1="91.6" x2="35.53" y2="109.04"/>
      <path class="cls-2" d="M72.64,14.87s.85,12.43-3.95,18.07-14.06,12.71-14.06,12.71"/>
      <path class="cls-2" d="M65.23,19.88s-3.11,9.04-8.19,12.43c-5.08,3.39-9.46,5.93-9.46,5.93"/>
      <line class="cls-2" x1="58.32" y1="31.3" x2="62.19" y2="38.67"/>
      <line class="cls-2" x1="70.51" y1="29.97" x2="76.88" y2="28.15"/>
      <line class="cls-2" x1="56.41" y1="84.83" x2="66.15" y2="84.83"/>
      <line class="cls-2" x1="59.21" y1="77.85" x2="50.05" y2="68.2"/>
      <line class="cls-2" x1="36.21" y1="84.83" x2="52.96" y2="91.6"/>
      <line class="cls-2" x1="46.33" y1="100.32" x2="50.05" y2="107.78"/>
      <line class="cls-2" x1="56.97" y1="44.4" x2="63.66" y2="46.5"/>
      <line class="cls-2" x1="58.32" y1="17.78" x2="61.28" y2="26.56"/>
      <line class="cls-2" x1="23.03" y1="96.44" x2="13.91" y2="90.4"/>
    </g>
  </g>
</svg>