<?xml version="1.0" encoding="UTF-8"?>
<svg id="_レイヤー_2" data-name="レイヤー 2" xmlns="http://www.w3.org/2000/svg" viewBox="0 0 88.37 82.81">
  <defs>
    <style>
      .cls-1 {
        stroke: #231815;
        stroke-miterlimit: 10;
        stroke-width: 2.79px;
      }

      .cls-1, .cls-2 {
        fill: #fff;
      }

      .cls-3 {
        fill: #231815;
      }
    </style>
  </defs>
  <g id="illust">
    <g>
      <path class="cls-2" d="M88.08,46.17C84.5,9.12,61.2,7.33,44.18,7.33S3.87,9.12.28,46.17s27.71,36.64,43.9,36.64,47.48.41,43.9-36.64Z"/>
      <g>
        <path class="cls-2" d="M61.49,11.22s4.46-4.33,10.04-7.54c4.67-2.68,10.48-4.46,11.78-3.34,1.2,1.04-.13,4.48.31,8.11.44,3.63,1.12,15.91-3.9,18.34-8.68,4.2-18.22-15.58-18.22-15.58Z"/>
        <path class="cls-2" d="M26.87,11.22s-4.46-4.33-10.04-7.54C12.16,1,6.35-.78,5.06.34c-1.2,1.04.13,4.48-.31,8.11-.44,3.63-1.12,15.91,3.9,18.34,8.68,4.2,18.22-15.58,18.22-15.58Z"/>
      </g>
      <g>
        <path class="cls-1" d="M64.23,59.57c-2.44-12.52-13.7-14.27-20.05-14.27s-17.61,1.75-20.05,14.27c-2.44,12.52,15.1,8.89,20.05,8.89s22.48,3.63,20.05-8.89Z"/>
        <g>
          <path class="cls-3" d="M53.4,57.1c.56,2.84.13,5.31-.97,5.53-1.1.22-2.45-1.9-3.02-4.74-.56-2.84-.13-5.31.97-5.53,1.1-.22,2.45,1.9,3.02,4.74Z"/>
          <path class="cls-3" d="M34.97,57.1c-.56,2.84-.13,5.31.97,5.53,1.1.22,2.45-1.9,3.02-4.74s.13-5.31-.97-5.53c-1.1-.22-2.45,1.9-3.02,4.74Z"/>
        </g>
      </g>
      <g>
        <path class="cls-3" d="M70.76,41.13c0,2.18-1.37,3.94-3.06,3.94s-3.06-1.76-3.06-3.94,1.37-3.94,3.06-3.94,3.06,1.76,3.06,3.94Z"/>
        <ellipse class="cls-3" cx="20.66" cy="41.13" rx="3.06" ry="3.94"/>
      </g>
    </g>
  </g>
</svg>