<?xml version="1.0" encoding="UTF-8"?>
<svg id="_レイヤー_2" data-name="レイヤー 2" xmlns="http://www.w3.org/2000/svg" viewBox="0 0 93.25 102.38">
  <defs>
    <style>
      .cls-1 {
        stroke: #231815;
        stroke-miterlimit: 10;
        stroke-width: 2.7px;
      }

      .cls-1, .cls-2 {
        fill: #fff;
      }

      .cls-3 {
        fill: #231815;
      }
    </style>
  </defs>
  <g id="illust">
    <g>
      <g>
        <circle class="cls-2" cx="23.04" cy="23.04" r="23.04"/>
        <path class="cls-3" d="M29.3,7.99c1.71,2.26,2.73,5.07,2.73,8.13,0,7.47-6.06,13.53-13.52,13.53-3.02,0-5.8-1-8.05-2.68,1.74,6.67,7.8,11.61,15.02,11.61,8.58,0,15.54-6.96,15.54-15.54,0-7.26-4.99-13.34-11.72-15.05Z"/>
      </g>
      <g>
        <circle class="cls-2" cx="32.21" cy="79.34" r="23.04" transform="translate(-28.75 19.21) rotate(-23.3)"/>
        <path class="cls-3" d="M45.28,76.39c-1.56-8.16-9.21-13.58-17.34-12.53,3.25.61,5.95,3.14,6.61,6.58.86,4.5-2.08,8.84-6.58,9.7-4.5.86-8.84-2.08-9.7-6.58-.37-1.94-.03-3.85.83-5.46-3.66,3.54-5.53,8.8-4.5,14.17,1.62,8.47,9.81,14.02,18.28,12.4s14.02-9.81,12.4-18.28Z"/>
      </g>
      <g>
        <circle class="cls-1" cx="68.86" cy="54.41" r="23.04" transform="translate(-12.52 87.26) rotate(-60.3)"/>
        <path class="cls-3" d="M85.46,55.99c-1.34,1.07-2.95,1.84-4.75,2.19-5.93,1.14-11.66-2.75-12.8-8.68-.7-3.67.52-7.25,2.95-9.73-.69.03-1.38.09-2.08.23-7.69,1.47-12.72,8.9-11.25,16.59,1.47,7.69,8.9,12.72,16.59,11.25,6.07-1.16,10.48-6.05,11.34-11.84Z"/>
      </g>
    </g>
  </g>
</svg>