<?xml version="1.0" encoding="UTF-8"?>
<svg id="_レイヤー_2" data-name="レイヤー 2" xmlns="http://www.w3.org/2000/svg" viewBox="0 0 108.82 60.84">
  <defs>
    <style>
      .cls-1 {
        stroke: #231815;
      }

      .cls-1, .cls-2 {
        fill: none;
        stroke-linecap: round;
        stroke-linejoin: round;
        stroke-width: 1.68px;
      }

      .cls-3 {
        fill: #231815;
      }

      .cls-2 {
        stroke: #fff;
      }

      .cls-4 {
        fill: #fff;
      }
    </style>
  </defs>
  <g id="illust">
    <g>
      <g>
        <g>
          <path class="cls-3" d="M103.25,58.72c-3.26-5.58-18.08-27.91-46.46-27.91-.52,0-1.05,0-1.58.02-4.03.11-8.08.17-12.05.17-22.01,0-36.76-1.78-40.64-2.31C4.11,24.51,11.15,7.75,23.96,2.68c3.07-1.22,6.92-1.83,11.46-1.83,16.86,0,39.62,8.51,54.12,20.23,21.48,17.36,18.23,29.34,18.2,29.46-.61,2.04-3.18,6.17-4.48,8.19Z"/>
          <path class="cls-4" d="M35.41,1.68c16.69,0,39.22,8.43,53.59,20.04,21.04,17.01,17.95,28.45,17.92,28.56-.46,1.54-2.22,4.55-3.64,6.82-1.72-2.79-5.03-7.55-10.09-12.33-7.14-6.76-19.26-14.81-36.4-14.81-.53,0-1.06,0-1.6.02-4.02.11-8.07.17-12.03.17-20.3,0-34.4-1.52-39.46-2.16C5.82,22.73,12.61,8.08,24.27,3.46c2.97-1.18,6.72-1.77,11.15-1.77M35.41,0c-4.5,0-8.52.6-11.77,1.89C8.49,7.9,1.38,29.38,1.38,29.38c0,0,15.71,2.47,41.78,2.47,3.81,0,7.84-.05,12.08-.17.52-.01,1.04-.02,1.55-.02,32.12,0,46.4,28.7,46.4,28.7,0,0,4.49-6.67,5.35-9.58.86-2.91.9-14.69-18.48-30.35C74.84,8.11,51.9,0,35.41,0h0Z"/>
        </g>
        <g>
          <path class="cls-2" d="M31.74,1.48s-2.12,1.61-4.53,3.92-3.13,3.82-3.13,3.82"/>
          <path class="cls-2" d="M41.33,1.26s-2.41,1.9-3.43,3.26-1.99,2.95-1.99,2.95"/>
          <path class="cls-2" d="M48.19,2.41s-1.33,1.11-1.92,2.2c-.59,1.09-1.25,2.13-1.25,2.13"/>
          <path class="cls-2" d="M75.42,11.98s-1.39,1.17-2.58,2.74c-1.2,1.57-1.96,3.11-1.96,3.11"/>
          <path class="cls-2" d="M81.48,16.32s-1.12.94-2.08,2.21c-.96,1.27-1.58,2.51-1.58,2.51"/>
        </g>
      </g>
      <path class="cls-4" d="M.89,41.32C-3.27,33.04,5.87,1.23,54.82,15.59c48.96,14.36,55.33,48.17,45.76,45.05-9.57-3.12-16.71-13.98-32.04-15.64-15.33-1.66-16.85,17.56-34.76,14.41C15.88,56.25,5.06,49.6.89,41.32Z"/>
      <g>
        <path class="cls-1" d="M16.97,23.94s-4.92,10.77,1.56,19.01c6.47,8.25,14.13,10.08,14.13,10.08"/>
        <path class="cls-1" d="M32.37,28.01s.7,6.89,4.86,11.29c4.16,4.39,7.28,5.03,7.28,5.03"/>
        <path class="cls-1" d="M53.78,40.62s-5.22-3.42-5.48-7.89c-.26-4.48,4.79-8.88,10.71-4.11s4.24,10.46,4.24,10.46"/>
        <path class="cls-1" d="M70.28,27.5s3.77,3.94,7.35,9.01c3.58,5.07,2.81,7.66,2.81,7.66"/>
        <path class="cls-1" d="M87.03,37.93s4.78,4.51,6.22,8.11,1.47,6.71,1.47,6.71"/>
      </g>
    </g>
  </g>
</svg>