<?xml version="1.0" encoding="UTF-8"?>
<svg id="_レイヤー_2" data-name="レイヤー 2" xmlns="http://www.w3.org/2000/svg" viewBox="0 0 74.28 89.37">
  <defs>
    <style>
      .cls-1 {
        fill: #fff;
      }
    </style>
  </defs>
  <g id="illust">
    <g>
      <path class="cls-1" d="M8.31,28.71c-18.69,0,0-28.71,0-28.71,0,0,18.69,28.71,0,28.71Z"/>
      <path class="cls-1" d="M34.06,66.15c-18.69,0,0-28.71,0-28.71,0,0,18.69,28.71,0,28.71Z"/>
      <path class="cls-1" d="M8.31,89.37c-18.69,0,0-28.71,0-28.71,0,0,18.69,28.71,0,28.71Z"/>
      <path class="cls-1" d="M60.41,37.45c-18.69,0,0-28.71,0-28.71,0,0,18.69,28.71,0,28.71Z"/>
      <path class="cls-1" d="M65.97,86.87c-18.69,0,0-28.71,0-28.71,0,0,18.69,28.71,0,28.71Z"/>
    </g>
  </g>
</svg>