<?xml version="1.0" encoding="UTF-8"?>
<svg id="_レイヤー_2" data-name="レイヤー 2" xmlns="http://www.w3.org/2000/svg" viewBox="0 0 96.14 120.12">
  <defs>
    <style>
      .cls-1 {
        fill: #fff;
      }

      .cls-2 {
        fill: none;
        stroke: #fff;
        stroke-linecap: round;
        stroke-miterlimit: 10;
        stroke-width: 4.2px;
      }
    </style>
  </defs>
  <g id="illust">
    <g>
      <path class="cls-1" d="M5.99,25.09c1.68-.31,5.28,2.7,16.62,5.34,11.34,2.64,38.32,4.3,42.28,12.66s-15.25,27.84-30.48,21.75C19.17,58.75,4.32,25.41,5.99,25.09Z"/>
      <path class="cls-1" d="M70,50.57c3.11-4.26,23.5,12.67,17.61,15.86-5.88,3.19-16.33,7.98-21.99,11.16-5.66,3.18-14.22-5.01-10.09-9.65s11.36-13.11,14.47-17.37Z"/>
      <path class="cls-1" d="M89.4,71.98c7.25-3.15,9.47,23.47,2.55,22.28-6.92-1.19-19.84-3.04-24.44-3.83-4.6-.8-6.88-5.3-.29-8.46,6.59-3.17,14.93-6.83,22.18-9.98Z"/>
      <path class="cls-1" d="M90.96,99.33c-8.45-1.69-20.4-3.92-24.45-4.85-4.05-.93-6.14,1.64-3.67,4.67s6.3,8.9,11.58,14.27c5.28,5.37,25-12.41,16.55-14.1Z"/>
      <path class="cls-1" d="M62.06,103.78c2.98,4.49,3.06,4.93,7.71,11.57,4.65,6.64-18.02,5.94-16.7.34,1.32-5.61,2.11-9.1,3-12.18.89-3.08,3.02-4.22,6,.27Z"/>
      <path class="cls-1" d="M50.59,101.27c2.34.45.2,17.37-4.18,13.51-4.38-3.86-5.85-5.34-8.65-8.33-2.8-2.99-1.55-6.63,2.5-6.22s7.98.59,10.32,1.03Z"/>
      <path class="cls-1" d="M18.16,82.64c-1.99-1.4-9.95,8.29-8.7,10.32,1.26,2.03,5.1,3.03,3.78,3.39s-4.54,3.67-2.59,5.75c1.95,2.08,15.41,2.25,18.73,2.27,3.32.02,4.92-3.97,3.66-6.09-1.26-2.12-12.9-14.24-14.89-15.64Z"/>
      <path class="cls-2" d="M3.34,20.26S-1.82,10.25,8.92,3.87c10.74-6.38,41.28,5.32,47.82,21.2"/>
    </g>
  </g>
</svg>