<?xml version="1.0" encoding="UTF-8"?>
<svg id="_レイヤー_2" data-name="レイヤー 2" xmlns="http://www.w3.org/2000/svg" viewBox="0 0 124.47 122.82">
  <defs>
    <style>
      .cls-1 {
        fill: #231815;
        stroke-width: 4.8px;
      }

      .cls-1, .cls-2 {
        stroke: #fff;
        stroke-linecap: round;
        stroke-miterlimit: 10;
      }

      .cls-2 {
        fill: none;
        stroke-width: 2.48px;
      }
    </style>
  </defs>
  <g id="illust">
    <g>
      <g>
        <path class="cls-1" d="M47.55,2.44C44.27,1.34,7.86,24.96,8.38,35.99c.52,11.03,23.3,13.96,23.3,13.96,0,0,19.97,11.36,27.02,2.85,7.05-8.51-7.86-49.26-11.15-50.36Z"/>
        <path class="cls-2" d="M41.21,18.37s-2.78,4.91-5.02,11.61c-2.24,6.7-2.37,10.5-2.37,10.5"/>
      </g>
      <g>
        <path class="cls-1" d="M80.09,41.73c-3.18,1.38-14.44,43.29-6.67,51.15,7.77,7.86,26.66-5.21,26.66-5.21,0,0,22.44-4.92,21.99-15.96-.45-11.04-38.8-31.36-41.98-29.98Z"/>
        <path class="cls-2" d="M86.03,57.81s1.22,5.51,4.04,11.99c2.82,6.47,5.26,9.39,5.26,9.39"/>
      </g>
      <g>
        <path class="cls-1" d="M2.58,73.76c1.91-2.9,45.12-6.84,51.54,2.15,6.42,8.99-9.68,25.38-9.68,25.38,0,0-8.67,21.27-19.47,18.94C14.16,117.91.68,76.66,2.58,73.76Z"/>
        <path class="cls-2" d="M17.42,82.36s5.22,2.14,11.12,6.02c5.9,3.88,8.35,6.79,8.35,6.79"/>
      </g>
    </g>
  </g>
</svg>