<?xml version="1.0" encoding="UTF-8"?>
<svg id="_レイヤー_2" data-name="レイヤー 2" xmlns="http://www.w3.org/2000/svg" viewBox="0 0 75.3 91.71">
  <defs>
    <style>
      .cls-1 {
        fill: #231815;
      }

      .cls-2 {
        fill: #fff;
      }
    </style>
  </defs>
  <g id="illust">
    <g>
      <path class="cls-2" d="M12.44,7.45C24.66-6.58,64.15-.48,71.69,23.05c7.54,23.53,3.64,52.49-15.33,63.14-18.98,10.65-48.85,5.46-54.31-11.95-5.46-17.41,1.56-22.61,2.86-33C6.21,30.84.23,21.49,12.44,7.45Z"/>
      <path class="cls-1" d="M15.59,30.76c1.44,1.81,2.38,3.82,3.06,5.95.37,1.06.57,2.17.77,3.31.14,1.15.19,2.34.11,3.59-.18,1.3-.49,2.48-.92,3.59-.47,1.09-.96,2.12-1.6,3.06-1.23,1.9-2.72,3.58-4.62,4.9l-.03.02c-.21.15-.5.09-.65-.12-.09-.13-.1-.29-.05-.43.37-1,.82-1.95,1.17-2.95.39-.97.77-1.93,1.13-2.88.69-1.9,1.33-3.81,1.5-5.59.18-1.85.02-3.87-.15-5.91l-.31-3.1c-.05-1.06-.22-2.1-.27-3.17-.01-.26.19-.48.44-.49.16,0,.3.06.39.17l.02.03Z"/>
    </g>
  </g>
</svg>