<?xml version="1.0" encoding="UTF-8"?>
<svg id="_レイヤー_2" data-name="レイヤー 2" xmlns="http://www.w3.org/2000/svg" viewBox="0 0 112.98 121.54">
  <defs>
    <style>
      .cls-1 {
        fill: #fff;
      }
    </style>
  </defs>
  <g id="illust">
    <path class="cls-1" d="M111,57.7l-.38-.33-.3-.24-.58-.45c-.38-.28-.76-.56-1.15-.82-.77-.52-1.57-1.01-2.41-1.46-1.67-.9-3.51-1.68-5.6-2.18-2.07-.5-4.49-.67-6.94-.16-1.22.26-2.41.7-3.51,1.27-.54.29-1.07.6-1.55.95l-.37.26-.42.32c-.28.22-.55.47-.82.73-1.07,1.04-1.94,2.4-2.45,3.72-.52,1.33-.72,2.59-.8,3.7-.13,2.22.14,3.95.39,5.52.53,3.1,1.09,5.67,1.03,7.75-.07,2.08-.53,3.37-1.9,4.72-1.43,1.33-3.03,2.02-5.13,2.02-1.71-.01-3.59-.51-5.47-1.32,0-1.15-.5-2.19-1.32-2.98,2.99-1.9,5.12-5.52,6.71-12.44,1.7-7.37-.3-20.73-2.38-31.05,7.51.24,13.7-.45,13.6-4.57-.2-7.67-24.7-30.68-32.77-30.68S23.91,23.01,23.71,30.68c-.11,4.12,6.08,4.81,13.6,4.57-2.08,10.32-4.07,23.67-2.38,31.05,1.59,6.93,3.73,10.56,6.72,12.45-.82.78-1.31,1.82-1.32,2.96-1.89.81-3.77,1.31-5.49,1.32-2.1,0-3.7-.69-5.13-2.02-1.37-1.35-1.84-2.64-1.9-4.72-.06-2.08.5-4.65,1.03-7.75.24-1.57.52-3.3.39-5.52-.08-1.1-.28-2.36-.8-3.7-.5-1.33-1.38-2.68-2.45-3.72-.26-.25-.54-.51-.82-.73l-.42-.32-.37-.26c-.48-.35-1.01-.66-1.55-.95-1.1-.57-2.29-1-3.51-1.27-2.45-.51-4.87-.34-6.94.16-2.09.5-3.93,1.28-5.6,2.18-.84.45-1.64.94-2.41,1.46-.39.26-.77.53-1.15.82l-.58.45-.3.24-.38.33c-2.55,2.44-2.64,6.48-.2,9.03,2.44,2.55,6.48,2.64,9.03.2-.06.05,0-.02.03-.04l.12-.12.27-.26c.19-.18.39-.35.59-.53.41-.35.83-.67,1.26-.97.85-.6,1.71-1.05,2.45-1.33.75-.29,1.33-.36,1.77-.37.22,0,.43.04.66.1.21.05.57.27.5.17,0-.03-.03-.15.02-.12.05.02.15.22.21.57.14.71.13,1.92.03,3.26-.18,2.71-.71,5.98-.29,9.77.21,1.89.74,3.94,1.75,5.83,1,1.9,2.45,3.54,4.01,4.74,1.56,1.19,3.37,2.18,5.34,2.73,1.96.56,3.99.69,5.88.49,1.3-.14,2.52-.42,3.69-.78-.75,2.44-1.96,5.06-3.88,7.28-4.46,5.16-14.23,4.35-14.3,4.34-2.73-.27-4.92,1.26-4.89,3.37.03,2.07,2.2,3.93,4.84,4.18.15.01,1.15.1,2.67.1,4.41,0,13.25-.75,19.05-6.32-.18.65-.37,1.27-.57,1.83-2.08,5.89-7.03,8.63-7.05,8.64-2.04,1.07-2.42,3.23-.87,4.81.97.99,2.47,1.53,3.95,1.53.85,0,1.7-.18,2.44-.55.3-.15,7.51-3.85,10.77-12.07.15-.37.29-.77.43-1.18l.25,12.14c.04,1.86,2.08,3.35,4.57,3.35s4.53-1.49,4.57-3.35l.25-12.14c.14.41.29.81.43,1.18,3.26,8.22,10.47,11.92,10.77,12.07.74.37,1.59.55,2.44.55,1.48,0,2.98-.54,3.95-1.53,1.55-1.58,1.18-3.74-.87-4.81-.05-.03-4.95-2.72-7.05-8.64-.2-.56-.39-1.18-.57-1.83,5.8,5.57,14.64,6.32,19.05,6.32,1.52,0,2.52-.09,2.67-.1,2.63-.25,4.79-2.09,4.83-4.15.04-2.1-2.13-3.63-4.85-3.39-.1,0-9.87.82-14.33-4.34-1.92-2.22-3.12-4.83-3.88-7.28,1.16.36,2.38.63,3.67.78,1.89.2,3.92.07,5.88-.49,1.96-.55,3.78-1.54,5.34-2.73,1.56-1.21,3.02-2.85,4.01-4.74,1-1.89,1.53-3.95,1.75-5.83.42-3.79-.11-7.06-.29-9.77-.1-1.34-.11-2.55.03-3.26.06-.35.16-.55.21-.57.05-.03.03.09.02.12-.07.09.29-.12.5-.17.23-.06.44-.09.66-.1.45,0,1.02.08,1.77.37.74.28,1.6.73,2.45,1.33.43.3.85.62,1.26.97.2.17.4.35.59.53l.27.26.12.12s.09.1.03.04c2.55,2.44,6.6,2.35,9.03-.2,2.44-2.55,2.35-6.6-.2-9.03Z"/>
  </g>
</svg>