<?xml version="1.0" encoding="UTF-8"?>
<svg id="_レイヤー_2" data-name="レイヤー 2" xmlns="http://www.w3.org/2000/svg" viewBox="0 0 85.02 91.69">
  <defs>
    <style>
      .cls-1 {
        fill: #fff;
      }

      .cls-2 {
        fill: none;
        stroke: #231815;
        stroke-linecap: round;
        stroke-miterlimit: 10;
        stroke-width: 2.7px;
      }
    </style>
  </defs>
  <g id="illust">
    <g>
      <path class="cls-1" d="M80.39,24.2c-5.21-10.67-18.36-15.79-28.49-17.77-2.45-1.65-4.16-6.43-8.22-6.43-4.42,0-5.09,4.34-9.38,6.21-10.26,1.81-24.24,6.9-29.66,17.99-7.13,14.59-6.11,37.66,3.58,49.42,5.24,6.36,14.84,9.79,22.56,11.6,2.48,1.61,4.19,6.47,8.29,6.47,3.62,0,4.72-2.92,7.36-5,7.34-1.03,23.09-4.21,30.39-13.07,9.69-11.76,10.7-34.83,3.58-49.42Z"/>
      <path class="cls-2" d="M39.49,9.84s-5.65,10.63-6.11,32.79c-.45,22.16,3.05,35.73,3.05,35.73"/>
      <path class="cls-2" d="M19.39,21.96s-3.42,2-4.09,3.42c-.66,1.43.48,5.04.29,5.89-.19.86-2.38,2.38-3.14,4.37-.76,2,0,6.27,0,6.27"/>
      <path class="cls-2" d="M19.96,49.9s-1.52,3.9,0,5.7c1.52,1.81,2.47,3.23,3.04,5.89.57,2.66-.57,5.61-.57,5.61"/>
      <path class="cls-2" d="M59.49,18.54s7.03,4.28,7.7,6.65c.66,2.38,0,5.42,0,7.13s1.33,3.14,1.71,5.13c.38,2-.76,4.47-.76,4.47"/>
      <path class="cls-2" d="M51.79,40.49s2.09,2.95,1.52,5.7c-.57,2.76-2.38,3.9-2.95,5.51-.57,1.62,0,3.04,0,3.04"/>
      <path class="cls-2" d="M65.76,60.73s.76,5.23-1.14,6.37-3.04.76-4.47,1.81c-1.43,1.05-1.24,4.94-3.42,5.42-2.19.48-5.42.1-5.42.1"/>
    </g>
  </g>
</svg>