<?xml version="1.0" encoding="UTF-8"?>
<svg id="_レイヤー_2" data-name="レイヤー 2" xmlns="http://www.w3.org/2000/svg" viewBox="0 0 103.78 120.12">
  <defs>
    <style>
      .cls-1 {
        fill: #fff;
      }

      .cls-2 {
        fill: none;
        stroke: #fff;
        stroke-linecap: round;
        stroke-miterlimit: 10;
        stroke-width: 4.2px;
      }
    </style>
  </defs>
  <g id="illust">
    <g>
      <g>
        <path class="cls-1" d="M96.48,73.34c.08,5.71-7.95,13.72-10.71,13.76-2.76.04-11.03-8.17-11.11-13.44s10.62-19.83,10.62-19.83c0,0,11.11,13.8,11.19,19.51Z"/>
        <path class="cls-1" d="M87.02,49.64c.09,6.23-1.63,11.31-1.63,11.31,0,0-1.86-5.02-1.95-11.25-.09-6.23,1.63-11.31,1.63-11.31,0,0,1.86,5.02,1.95,11.25Z"/>
      </g>
      <g>
        <path class="cls-1" d="M79.8,52.26c.08,5.71-7.95,13.72-10.71,13.76-2.76.04-11.03-8.17-11.11-13.44-.08-5.28,10.62-19.83,10.62-19.83,0,0,11.11,13.8,11.19,19.51Z"/>
        <path class="cls-1" d="M70.34,28.56c.09,6.23-1.63,11.31-1.63,11.31,0,0-1.86-5.02-1.95-11.25-.09-6.23,1.63-11.31,1.63-11.31,0,0,1.86,5.02,1.95,11.25Z"/>
      </g>
      <g>
        <path class="cls-1" d="M63.05,33.8c.08,5.21-7.25,12.51-9.77,12.55-2.52.04-10.06-7.45-10.13-12.26-.07-4.81,9.69-18.08,9.69-18.08,0,0,10.13,12.59,10.21,17.79Z"/>
        <path class="cls-1" d="M54.42,12.19c.08,5.68-1.48,10.31-1.48,10.31,0,0-1.7-4.58-1.78-10.26s1.48-10.31,1.48-10.31c0,0,1.7,4.58,1.78,10.26Z"/>
      </g>
      <g>
        <path class="cls-1" d="M59.4,102.67c5.54,1.4,15.18-4.58,15.86-7.26.67-2.68-5.41-12.61-10.52-13.9s-21.74,5.77-21.74,5.77c0,0,10.87,13.99,16.41,15.39Z"/>
        <path class="cls-1" d="M38.52,88c6.04,1.52,11.38,1.02,11.38,1.02,0,0-4.46-2.97-10.5-4.49-6.04-1.52-11.38-1.02-11.38-1.02,0,0,4.46,2.97,10.5,4.49Z"/>
      </g>
      <g>
        <path class="cls-1" d="M42.72,81.59c5.54,1.4,15.18-4.58,15.86-7.26.67-2.68-5.41-12.61-10.52-13.9-5.12-1.29-21.74,5.77-21.74,5.77,0,0,10.87,13.99,16.41,15.39Z"/>
        <path class="cls-1" d="M21.84,66.92c6.04,1.52,11.38,1.02,11.38,1.02,0,0-4.46-2.97-10.5-4.49-6.04-1.52-11.38-1.02-11.38-1.02,0,0,4.46,2.97,10.5,4.49Z"/>
      </g>
      <g>
        <path class="cls-1" d="M28.62,61.04c5.05,1.27,13.85-4.18,14.46-6.62.61-2.44-4.93-11.5-9.6-12.68s-19.83,5.27-19.83,5.27c0,0,9.91,12.76,14.96,14.03Z"/>
        <path class="cls-1" d="M9.58,47.66c5.51,1.39,10.37.93,10.37.93,0,0-4.07-2.71-9.58-4.1-5.51-1.39-10.37-.93-10.37-.93,0,0,4.07,2.71,9.58,4.1Z"/>
      </g>
      <g>
        <path class="cls-1" d="M37.56,20.02c3.41,4.32,1.97,15.15-.11,16.8-2.08,1.65-13.22.23-16.38-3.76-3.15-3.99-3.51-21.39-3.51-21.39,0,0,16.59,4.03,20,8.34Z"/>
        <path class="cls-1" d="M16.42,7.45c3.72,4.71,5.39,9.6,5.39,9.6,0,0-4.37-2.75-8.1-7.45S8.33,0,8.33,0c0,0,4.37,2.75,8.1,7.45Z"/>
      </g>
      <line class="cls-2" x1="35.84" y1="34.78" x2="101.68" y2="118.02"/>
    </g>
  </g>
</svg>