<?xml version="1.0" encoding="UTF-8"?>
<svg id="_レイヤー_2" data-name="レイヤー 2" xmlns="http://www.w3.org/2000/svg" viewBox="0 0 96.69 98.97">
  <defs>
    <style>
      .cls-1 {
        fill: #231815;
        stroke-width: 4.5px;
      }

      .cls-1, .cls-2 {
        stroke: #fff;
        stroke-linecap: round;
        stroke-miterlimit: 10;
      }

      .cls-3 {
        fill: #fff;
      }

      .cls-2 {
        fill: none;
        stroke-width: 2.7px;
      }
    </style>
  </defs>
  <g id="illust">
    <g>
      <path class="cls-1" d="M3.69,66.61c2.12-4.15,37.55-49.49,55.8-60.04,18.25-10.55,36.67-1.34,34.83,22.77-1.84,24.11-38.07,62.77-38.07,62.77"/>
      <path class="cls-3" d="M61.13,80.49c-4.5-13.06-24.85-25.74-35.7-26.17-10.85-.43-28.57,7.24-24.95,20.13,3.63,12.89,33.83,24.87,42.55,24.51,8.72-.36,22.59-5.41,18.1-18.47Z"/>
      <g>
        <path class="cls-2" d="M65.2,61.49s6.77,4.43,9.65,7.92c2.88,3.49,4.72,8.5,4.72,8.5"/>
        <path class="cls-2" d="M77.31,57.43s3.76.61,6.77,2.94c3.01,2.34,5.35,5.18,5.35,5.18"/>
        <path class="cls-2" d="M41.65,36.32s-2.66-5.2-5.78-7.25c-3.13-2.05-9.92-3.44-9.92-3.44"/>
        <path class="cls-2" d="M44.82,10.15s5.8,0,9.51,3.5c3.72,3.5,5.03,5.58,5.03,5.58"/>
        <path class="cls-2" d="M65.5,14.63s3.83,1.86,5.36,3.94c1.53,2.08,1.97,5.25,1.97,5.25"/>
      </g>
    </g>
  </g>
</svg>