<svg width="48" height="48" viewBox="0 0 48 48" fill="none" xmlns="http://www.w3.org/2000/svg">
<g clip-path="url(#clip0_1175_1981)">
<path fill-rule="evenodd" clip-rule="evenodd" d="M32.12 21.8798C32.6818 22.4423 32.9974 23.2048 32.9974 23.9998C32.9974 24.7948 32.6818 25.5573 32.12 26.1198L20.808 37.4358C20.2452 37.9983 19.482 38.3143 18.6863 38.3141C17.8906 38.3139 17.1275 37.9976 16.565 37.4348C16.0025 36.872 15.6866 36.1088 15.6868 35.3131C15.687 34.5174 16.0032 33.7543 16.566 33.1918L25.758 23.9998L16.566 14.8078C16.0193 14.2423 15.7165 13.4846 15.723 12.698C15.7295 11.9114 16.0446 11.1588 16.6006 10.6023C17.1565 10.0458 17.9088 9.72999 18.6954 9.72278C19.482 9.71558 20.24 10.0176 20.806 10.5638L32.122 21.8778L32.12 21.8798Z" fill="#FCFCFC"/>
</g>
<defs>
<clipPath id="clip0_1175_1981">
<rect width="48" height="48" fill="white"/>
</clipPath>
</defs>
</svg>
