<svg width="36" height="36" viewBox="0 0 36 36" fill="none" xmlns="http://www.w3.org/2000/svg">
<path d="M14.325 22.725L27.0375 10.0125C27.3375 9.7125 27.6875 9.5625 28.0875 9.5625C28.4875 9.5625 28.8375 9.7125 29.1375 10.0125C29.4375 10.3125 29.5875 10.669 29.5875 11.082C29.5875 11.495 29.4375 11.851 29.1375 12.15L15.375 25.95C15.075 26.25 14.725 26.4 14.325 26.4C13.925 26.4 13.575 26.25 13.275 25.95L6.82503 19.5C6.52503 19.2 6.38103 18.844 6.39303 18.432C6.40503 18.02 6.56153 17.6635 6.86253 17.3625C7.16353 17.0615 7.52003 16.9115 7.93203 16.9125C8.34403 16.9135 8.70003 17.0635 9.00003 17.3625L14.325 22.725Z" fill="#FCFCFC"/>
</svg>
