<svg width="108" height="108" viewBox="0 0 108 108" fill="none" xmlns="http://www.w3.org/2000/svg">
<path d="M42.9748 68.175L81.1123 30.0375C82.0123 29.1375 83.0623 28.6875 84.2623 28.6875C85.4623 28.6875 86.5123 29.1375 87.4123 30.0375C88.3123 30.9375 88.7623 32.007 88.7623 33.246C88.7623 34.485 88.3123 35.553 87.4123 36.45L46.1248 77.85C45.2248 78.75 44.1748 79.2 42.9748 79.2C41.7748 79.2 40.7248 78.75 39.8248 77.85L20.4748 58.5C19.5748 57.6 19.1428 56.532 19.1788 55.296C19.2148 54.06 19.6843 52.9905 20.5873 52.0875C21.4903 51.1845 22.5598 50.7345 23.7958 50.7375C25.0318 50.7405 26.0998 51.1905 26.9998 52.0875L42.9748 68.175Z" fill="#FCFCFC"/>
</svg>
