<svg width="44" height="18" viewBox="0 0 44 18" fill="none" xmlns="http://www.w3.org/2000/svg">
<path d="M4 15C3.71667 15 3.47934 14.904 3.288 14.712C3.09667 14.52 3.00067 14.2827 3 14C2.99934 13.7173 3.09534 13.48 3.288 13.288C3.48067 13.096 3.718 13 4 13H20C20.2833 13 20.521 13.096 20.713 13.288C20.905 13.48 21.0007 13.7173 21 14C20.9993 14.2827 20.9033 14.5203 20.712 14.713C20.5207 14.9057 20.2833 15.0013 20 15H4ZM4 10C3.71667 10 3.47934 9.904 3.288 9.712C3.09667 9.52 3.00067 9.28267 3 9C2.99934 8.71733 3.09534 8.48 3.288 8.288C3.48067 8.096 3.718 8 4 8H20C20.2833 8 20.521 8.096 20.713 8.288C20.905 8.48 21.0007 8.71733 21 9C20.9993 9.28267 20.9033 9.52033 20.712 9.713C20.5207 9.90567 20.2833 10.0013 20 10H4ZM4 5C3.71667 5 3.47934 4.904 3.288 4.712C3.09667 4.52 3.00067 4.28267 3 4C2.99934 3.71733 3.09534 3.48 3.288 3.288C3.48067 3.096 3.718 3 4 3H20C20.2833 3 20.521 3.096 20.713 3.288C20.905 3.48 21.0007 3.71733 21 4C20.9993 4.28267 20.9033 4.52033 20.712 4.713C20.5207 4.90567 20.2833 5.00133 20 5H4Z" fill="#0F57A2"/>
<path d="M39.3788 1.62131C39.7766 1.22349 40.3161 1 40.8787 1C41.4413 1 41.9809 1.22349 42.3787 1.62131C42.7765 2.01912 43 2.55868 43 3.12127C43 3.68387 42.7765 4.22342 42.3787 4.62124L33.3659 13.635C33.1285 13.8723 32.8351 14.0459 32.5129 14.14L29.64 14.98C29.5539 15.0051 29.4627 15.0066 29.3759 14.9844C29.2891 14.9621 29.2098 14.9169 29.1464 14.8536C29.0831 14.7902 29.0379 14.7109 29.0156 14.6241C28.9934 14.5373 28.9949 14.4461 29.02 14.36L29.86 11.4871C29.9545 11.1651 30.1285 10.8722 30.366 10.6351L39.3788 1.62131Z" stroke="#0F57A2" stroke-width="1.75" stroke-linecap="round" stroke-linejoin="round"/>
</svg>
