<svg width="32" height="32" viewBox="0 0 32 32" fill="none" xmlns="http://www.w3.org/2000/svg">
<g clip-path="url(#clip0_1175_2109)">
<path fill-rule="evenodd" clip-rule="evenodd" d="M20.9427 15.0576C21.1927 15.3076 21.3331 15.6467 21.3331 16.0002C21.3331 16.3538 21.1927 16.6929 20.9427 16.9429L13.4001 24.4856C13.2771 24.6129 13.1299 24.7145 12.9673 24.7844C12.8046 24.8543 12.6296 24.891 12.4526 24.8926C12.2755 24.8941 12.1 24.8604 11.9361 24.7933C11.7723 24.7263 11.6234 24.6273 11.4982 24.5021C11.373 24.3769 11.274 24.228 11.207 24.0642C11.1399 23.9003 11.1062 23.7247 11.1077 23.5477C11.1093 23.3707 11.146 23.1957 11.2159 23.033C11.2858 22.8704 11.3874 22.7232 11.5147 22.6002L18.1147 16.0002L11.5147 9.40024C11.2718 9.14877 11.1374 8.81197 11.1405 8.46237C11.1435 8.11278 11.2837 7.77836 11.531 7.53115C11.7782 7.28394 12.1126 7.14371 12.4622 7.14068C12.8118 7.13764 13.1486 7.27203 13.4001 7.51491L20.9427 15.0576Z" fill="#FCFCFC"/>
</g>
<defs>
<clipPath id="clip0_1175_2109">
<rect width="32" height="32" fill="white"/>
</clipPath>
</defs>
</svg>
