<svg width="80" height="80" viewBox="0 0 80 80" fill="none" xmlns="http://www.w3.org/2000/svg">
<path d="M23.3335 70C21.5002 70 19.9313 69.3478 18.6268 68.0433C17.3224 66.7389 16.6691 65.1689 16.6668 63.3333V20C15.7224 20 14.9313 19.68 14.2935 19.04C13.6557 18.4 13.3357 17.6089 13.3335 16.6667C13.3313 15.7244 13.6513 14.9333 14.2935 14.2933C14.9357 13.6533 15.7268 13.3333 16.6668 13.3333H30.0002C30.0002 12.3889 30.3202 11.5978 30.9602 10.96C31.6002 10.3222 32.3913 10.0022 33.3335 10H46.6668C47.6113 10 48.4035 10.32 49.0435 10.96C49.6835 11.6 50.0024 12.3911 50.0002 13.3333H63.3335C64.278 13.3333 65.0702 13.6533 65.7102 14.2933C66.3502 14.9333 66.6691 15.7244 66.6668 16.6667C66.6646 17.6089 66.3446 18.4011 65.7068 19.0433C65.0691 19.6856 64.278 20.0044 63.3335 20V63.3333C63.3335 65.1667 62.6813 66.7367 61.3768 68.0433C60.0724 69.35 58.5024 70.0022 56.6668 70H23.3335ZM56.6668 20H23.3335V63.3333H56.6668V20ZM33.3335 56.6667C34.278 56.6667 35.0702 56.3467 35.7102 55.7067C36.3502 55.0667 36.6691 54.2756 36.6668 53.3333V30C36.6668 29.0556 36.3468 28.2644 35.7068 27.6267C35.0668 26.9889 34.2757 26.6689 33.3335 26.6667C32.3913 26.6644 31.6002 26.9844 30.9602 27.6267C30.3202 28.2689 30.0002 29.06 30.0002 30V53.3333C30.0002 54.2778 30.3202 55.07 30.9602 55.71C31.6002 56.35 32.3913 56.6689 33.3335 56.6667ZM46.6668 56.6667C47.6113 56.6667 48.4035 56.3467 49.0435 55.7067C49.6835 55.0667 50.0024 54.2756 50.0002 53.3333V30C50.0002 29.0556 49.6802 28.2644 49.0402 27.6267C48.4002 26.9889 47.6091 26.6689 46.6668 26.6667C45.7246 26.6644 44.9335 26.9844 44.2935 27.6267C43.6535 28.2689 43.3335 29.06 43.3335 30V53.3333C43.3335 54.2778 43.6535 55.07 44.2935 55.71C44.9335 56.35 45.7246 56.6689 46.6668 56.6667Z" fill="#FCFCFC"/>
</svg>
